<svg width="166" height="44" viewBox="0 0 166 44" fill="none" xmlns="http://www.w3.org/2000/svg">
<path d="M-0.0078125 41.7859L0.809188 41.7099C0.833957 41.9942 0.926175 42.2685 1.07819 42.5099C1.24339 42.738 1.47078 42.9137 1.73319 43.0159C2.04958 43.1488 2.39009 43.2145 2.73319 43.2089C3.02973 43.2146 3.32474 43.1651 3.60319 43.0629C3.82544 42.9871 4.02075 42.8481 4.16519 42.6629C4.28335 42.5028 4.34713 42.309 4.34719 42.1099C4.35069 41.9165 4.28788 41.7277 4.16919 41.5749C4.01217 41.3963 3.80965 41.2636 3.58319 41.1909C3.20267 41.0651 2.8158 40.9593 2.42419 40.8739C1.99169 40.7859 1.57041 40.6497 1.16819 40.4679C0.886809 40.3313 0.646918 40.1221 0.473187 39.8619C0.320328 39.6197 0.240799 39.3384 0.244188 39.0519C0.244144 38.724 0.341606 38.4034 0.524187 38.1309C0.723182 37.8354 1.00848 37.6084 1.34119 37.4809C1.72066 37.3289 2.12644 37.2535 2.53519 37.2589C2.97183 37.2504 3.40574 37.3296 3.81119 37.4919C4.15739 37.6294 4.45378 37.8686 4.66119 38.1779C4.86071 38.4834 4.97149 38.8382 4.98119 39.2029L4.15519 39.2649C4.14603 39.0874 4.10141 38.9134 4.02395 38.7533C3.94649 38.5933 3.83777 38.4503 3.70419 38.3329C3.37375 38.1005 2.97318 37.9892 2.57019 38.0179C2.16935 37.9848 1.76882 38.0854 1.43119 38.3039C1.32166 38.3828 1.23225 38.4864 1.17023 38.6063C1.1082 38.7262 1.0753 38.859 1.07419 38.9939C1.0713 39.1028 1.09248 39.211 1.13621 39.3107C1.17995 39.4105 1.24516 39.4993 1.32719 39.5709C1.72459 39.8121 2.16688 39.97 2.62719 40.0349C3.11836 40.1311 3.6002 40.2699 4.06719 40.4499C4.40268 40.5898 4.69302 40.8196 4.90619 41.1139C5.08865 41.3878 5.18319 41.7109 5.17719 42.0399C5.17582 42.3887 5.07146 42.7293 4.87719 43.0189C4.66747 43.3351 4.37044 43.5835 4.02219 43.7339C3.62838 43.9077 3.20157 43.994 2.77119 43.9869C2.26589 44.002 1.76278 43.9146 1.29219 43.7299C0.909039 43.5713 0.582294 43.3013 0.354188 42.9549C0.125391 42.6074 -0.000132902 42.202 -0.0078125 41.7859ZM9.37219 43.8759V38.1359H7.22819V37.3679H12.3862V38.1359H10.2342V43.8759H9.37219ZM13.7502 43.8759V42.9659H14.6602V43.8759H13.7502ZM21.3782 43.8759V37.3689H22.6782L24.2182 41.9769C24.3602 42.4063 24.4639 42.7273 24.5292 42.9399C24.6032 42.7033 24.7185 42.3556 24.8752 41.8969L26.4332 37.3689H27.5922V43.8759H26.7622V38.4299L24.8672 43.8759H24.0922L22.2102 38.3359V43.8759H21.3782ZM29.6272 43.8759L32.1272 37.3679H33.0552L35.7172 43.8759H34.7362L33.9772 41.9099H31.2562L30.5412 43.8759H29.6272ZM31.5052 41.2039H33.7112L33.0322 39.4039C32.8249 38.8566 32.6709 38.4069 32.5702 38.0549C32.4857 38.4778 32.3683 38.8934 32.2192 39.2979L31.5052 41.2039ZM37.7822 43.8759V37.3689H40.6672C41.115 37.3496 41.5628 37.4088 41.9902 37.5439C42.2945 37.6627 42.5496 37.8808 42.7142 38.1629C42.8946 38.4581 42.9885 38.798 42.9852 39.1439C42.9956 39.5767 42.8341 39.9959 42.5362 40.3099C42.1565 40.6621 41.6678 40.8739 41.1512 40.9099C41.3382 40.9936 41.5129 41.1026 41.6702 41.2339C41.9439 41.4914 42.1842 41.7824 42.3852 42.0999L43.5172 43.8759H42.4342L41.5732 42.5219C41.3218 42.1313 41.1149 41.8313 40.9522 41.6219C40.8305 41.4547 40.683 41.3079 40.5152 41.1869C40.3948 41.1078 40.2619 41.0493 40.1222 41.0139C39.9638 40.9888 39.8035 40.9784 39.6432 40.9829H38.6432V43.8759H37.7822ZM38.6432 40.2399H40.4922C40.8045 40.2515 41.1166 40.2103 41.4152 40.1179C41.6227 40.0477 41.8008 39.91 41.9212 39.7269C42.0349 39.5535 42.0951 39.3504 42.0942 39.1429C42.0979 38.9995 42.0699 38.8571 42.0119 38.7258C41.954 38.5946 41.8677 38.4778 41.7592 38.3839C41.454 38.1593 41.0778 38.0527 40.7002 38.0839H38.6402L38.6432 40.2399ZM47.3672 43.8759V41.1199L44.8592 37.3689H45.9072L47.1922 39.3309C47.4289 39.6976 47.6492 40.0643 47.8532 40.4309C48.0485 40.0909 48.2852 39.7076 48.5632 39.2809L49.8222 37.3689H50.8222L48.2222 41.1199V43.8759H47.3672ZM52.6672 41.7849L53.4792 41.7139C53.504 41.9982 53.5962 42.2725 53.7482 42.5139C53.9134 42.742 54.1408 42.9177 54.4032 43.0199C54.7196 43.1528 55.0601 43.2185 55.4032 43.2129C55.6997 43.2186 55.9947 43.1691 56.2732 43.0669C56.4954 42.9911 56.6908 42.8521 56.8352 42.6669C56.9549 42.5059 57.0194 42.3106 57.0192 42.1099C57.0227 41.9165 56.9599 41.7277 56.8412 41.5749C56.6842 41.3963 56.4816 41.2636 56.2552 41.1909C55.8734 41.0646 55.4852 40.9585 55.0922 40.8729C54.6597 40.7849 54.2384 40.6487 53.8362 40.4669C53.5548 40.3303 53.3149 40.1211 53.1412 39.8609C52.9883 39.6187 52.9088 39.3374 52.9122 39.0509C52.9121 38.723 53.0096 38.4024 53.1922 38.1299C53.3912 37.8344 53.6765 37.6074 54.0092 37.4799C54.3887 37.3279 54.7944 37.2525 55.2032 37.2579C55.6398 37.2494 56.0737 37.3286 56.4792 37.4909C56.8254 37.6284 57.1218 37.8676 57.3292 38.1769C57.5287 38.4824 57.6395 38.8372 57.6492 39.2019L56.8232 39.2639C56.814 39.0864 56.7694 38.9124 56.6919 38.7523C56.6145 38.5923 56.5058 38.4493 56.3722 38.3319C56.0417 38.0995 55.6412 37.9882 55.2382 38.0169C54.8373 37.9838 54.4368 38.0844 54.0992 38.3029C53.9897 38.3818 53.9003 38.4854 53.8382 38.6053C53.7762 38.7252 53.7433 38.858 53.7422 38.9929C53.7393 39.1018 53.7605 39.21 53.8042 39.3097C53.8479 39.4095 53.9132 39.4983 53.9952 39.5699C54.3926 39.8111 54.8349 39.969 55.2952 40.0339C55.7864 40.1301 56.2682 40.2689 56.7352 40.4489C57.0707 40.5888 57.361 40.8186 57.5742 41.1129C57.7566 41.3868 57.8512 41.7099 57.8452 42.0389C57.8438 42.3877 57.7395 42.7283 57.5452 43.0179C57.3355 43.3341 57.0384 43.5825 56.6902 43.7329C56.2974 43.9066 55.8716 43.9933 55.4422 43.9869C54.9366 44.0021 54.4331 43.9147 53.9622 43.7299C53.5794 43.5711 53.253 43.3011 53.0252 42.9549C52.7982 42.6068 52.6744 42.2015 52.6682 41.7859L52.6672 41.7849ZM64.2922 43.8759V37.3689H67.1772C67.625 37.3496 68.0728 37.4088 68.5002 37.5439C68.8045 37.6627 69.0596 37.8808 69.2242 38.1629C69.4046 38.4581 69.4985 38.798 69.4952 39.1439C69.5053 39.5768 69.3435 39.9961 69.0452 40.3099C68.6655 40.6621 68.1768 40.8739 67.6602 40.9099C67.8472 40.9936 68.0219 41.1026 68.1792 41.2339C68.4529 41.4947 68.6925 41.789 68.8922 42.1099L70.0262 43.8759H68.9432L68.0822 42.5219C67.8308 42.1313 67.6239 41.8313 67.4612 41.6219C67.3395 41.4547 67.192 41.3079 67.0242 41.1869C66.9037 41.1078 66.7709 41.0493 66.6312 41.0139C66.4728 40.9888 66.3125 40.9784 66.1522 40.9829H65.1522V43.8759H64.2922ZM65.1532 40.2399H67.0042C67.3165 40.2515 67.6286 40.2103 67.9272 40.1179C68.1347 40.0477 68.3128 39.91 68.4332 39.7269C68.5469 39.5535 68.6071 39.3504 68.6062 39.1429C68.6099 38.9995 68.5819 38.8571 68.5239 38.7258C68.466 38.5946 68.3797 38.4778 68.2712 38.3839C67.966 38.1593 67.5898 38.0527 67.2122 38.0839H65.1522L65.1532 40.2399ZM76.4772 37.3689H77.3382V41.1289C77.3573 41.6573 77.2822 42.1849 77.1162 42.6869C76.9614 43.0802 76.6799 43.4106 76.3162 43.6259C75.8521 43.8869 75.324 44.012 74.7922 43.9869C74.2738 44.0081 73.7583 43.8998 73.2922 43.6719C72.9168 43.4752 72.6228 43.1522 72.4622 42.7599C72.2758 42.2372 72.1913 41.6835 72.2132 41.1289V37.3689H73.0742V41.1239C73.0542 41.5466 73.1077 41.9695 73.2322 42.3739C73.3343 42.6377 73.5262 42.8569 73.7742 42.9929C74.0629 43.146 74.3866 43.2212 74.7132 43.2109C74.9563 43.2351 75.2018 43.2093 75.4347 43.1352C75.6675 43.0611 75.8827 42.9402 76.0672 42.7799C76.3918 42.2925 76.5335 41.7059 76.4672 41.1239L76.4772 37.3689ZM80.1002 43.8759V37.3689H82.5422C82.9516 37.3536 83.3599 37.4216 83.7422 37.5689C84.0347 37.6937 84.2814 37.9062 84.4482 38.1769C84.6133 38.4331 84.7017 38.7312 84.7032 39.0359C84.7034 39.314 84.6251 39.5865 84.4772 39.8219C84.3093 40.079 84.0717 40.283 83.7922 40.4099C84.1511 40.5024 84.4699 40.7096 84.7002 40.9999C84.9134 41.2834 85.025 41.6304 85.0172 41.9849C85.0196 42.2794 84.9535 42.5704 84.8242 42.8349C84.7154 43.0719 84.5519 43.2796 84.3472 43.4409C84.1335 43.5943 83.8915 43.7037 83.6352 43.7629C83.2909 43.8419 82.9383 43.8785 82.5852 43.8719L80.1002 43.8759ZM80.9612 40.1029H82.3682C82.644 40.1141 82.92 40.0889 83.1892 40.0279C83.3856 39.9779 83.5597 39.8639 83.6842 39.7039C83.7996 39.5376 83.8579 39.3383 83.8502 39.1359C83.8543 38.935 83.8005 38.7371 83.6952 38.5659C83.5933 38.4031 83.4354 38.2833 83.2512 38.2289C82.9268 38.1543 82.5938 38.1237 82.2612 38.1379H80.9612V40.1029ZM80.9612 43.1079H82.5812C82.777 43.113 82.973 43.1027 83.1672 43.0769C83.3437 43.05 83.5134 42.9896 83.6672 42.8989C83.8064 42.8092 83.9195 42.6843 83.9952 42.5369C84.0836 42.3681 84.128 42.1796 84.1242 41.9889C84.1297 41.7637 84.0646 41.5424 83.9382 41.3559C83.8127 41.1761 83.6307 41.0434 83.4212 40.9789C83.1111 40.8951 82.7902 40.8584 82.4692 40.8699H80.9692L80.9612 43.1079ZM87.5272 43.8759V37.3689H89.9682C90.3776 37.3536 90.7859 37.4216 91.1682 37.5689C91.4607 37.6937 91.7074 37.9062 91.8742 38.1769C92.0393 38.4331 92.1277 38.7312 92.1292 39.0359C92.1294 39.314 92.051 39.5865 91.9032 39.8219C91.7366 40.0815 91.4993 40.2879 91.2192 40.4169C91.5781 40.5094 91.8969 40.7166 92.1272 41.0069C92.3404 41.2904 92.452 41.6374 92.4442 41.9919C92.4466 42.2864 92.3805 42.5774 92.2512 42.8419C92.1424 43.0789 91.9789 43.2866 91.7742 43.4479C91.5604 43.6012 91.3185 43.7107 91.0622 43.7699C90.7179 43.8489 90.3653 43.8855 90.0122 43.8789L87.5272 43.8759ZM88.3922 40.1029H89.7922C90.068 40.1141 90.344 40.0889 90.6132 40.0279C90.8096 39.9779 90.9837 39.8639 91.1082 39.7039C91.2237 39.5376 91.282 39.3383 91.2742 39.1359C91.2783 38.935 91.2245 38.7371 91.1192 38.5659C91.0173 38.4031 90.8594 38.2833 90.6752 38.2289C90.3508 38.1543 90.0178 38.1237 89.6852 38.1379H88.3922V40.1029ZM88.3922 43.1099H90.0122C90.2061 43.114 90.4 43.103 90.5922 43.0769C90.7687 43.05 90.9384 42.9896 91.0922 42.8989C91.2314 42.8092 91.3446 42.6843 91.4202 42.5369C91.5087 42.3681 91.553 42.1796 91.5492 41.9889C91.5547 41.7637 91.4896 41.5424 91.3632 41.3559C91.2377 41.1761 91.0557 41.0434 90.8462 40.9789C90.5361 40.8951 90.2152 40.8584 89.8942 40.8699H88.3922V43.1099ZM95.0112 43.8779V37.3689H99.7162V38.1369H95.8692V40.1299H99.4692V40.8939H95.8692V43.1099H99.8692V43.8759L95.0112 43.8779ZM102.434 43.8779V37.3689H105.319C105.767 37.3496 106.215 37.4088 106.642 37.5439C106.946 37.6627 107.202 37.8808 107.366 38.1629C107.547 38.4581 107.641 38.798 107.637 39.1439C107.648 39.5769 107.487 39.9965 107.189 40.3109C106.81 40.6631 106.321 40.8749 105.804 40.9109C105.991 40.9946 106.166 41.1036 106.323 41.2349C106.597 41.4924 106.837 41.7834 107.038 42.1009L108.166 43.8759H107.083L106.222 42.5219C105.971 42.1313 105.764 41.8313 105.601 41.6219C105.479 41.4547 105.332 41.3079 105.164 41.1869C105.044 41.1078 104.911 41.0493 104.771 41.0139C104.613 40.9888 104.452 40.9784 104.292 40.9829H103.292V43.8759L102.434 43.8779ZM103.295 40.2419H105.146C105.459 40.2535 105.771 40.2123 106.069 40.1199C106.277 40.0497 106.455 39.912 106.575 39.7289C106.689 39.5555 106.749 39.3524 106.748 39.1449C106.752 39.0015 106.724 38.8591 106.666 38.7278C106.608 38.5966 106.522 38.4798 106.413 38.3859C106.108 38.1613 105.732 38.0547 105.354 38.0859H103.292L103.295 40.2419ZM110.057 41.7869L110.869 41.7159C110.894 42.0002 110.986 42.2745 111.138 42.5159C111.303 42.744 111.531 42.9197 111.793 43.0219C112.11 43.1548 112.45 43.2205 112.793 43.2149C113.09 43.2206 113.385 43.1711 113.663 43.0689C113.885 42.9931 114.081 42.8541 114.225 42.6689C114.345 42.5079 114.409 42.3126 114.409 42.1119C114.413 41.9185 114.35 41.7297 114.231 41.5769C114.074 41.3983 113.872 41.2656 113.645 41.1929C113.265 41.0671 112.878 40.9613 112.486 40.8759C112.054 40.7879 111.632 40.6517 111.23 40.4699C110.949 40.3333 110.709 40.1241 110.535 39.8639C110.382 39.6217 110.303 39.3404 110.306 39.0539C110.306 38.726 110.404 38.4054 110.586 38.1329C110.785 37.8374 111.07 37.6104 111.403 37.4829C111.781 37.3306 112.185 37.2541 112.592 37.2579C113.029 37.2494 113.463 37.3286 113.868 37.4909C114.214 37.6284 114.511 37.8676 114.718 38.1769C114.918 38.4824 115.028 38.8372 115.038 39.2019L114.212 39.2639C114.203 39.0864 114.158 38.9124 114.081 38.7523C114.003 38.5923 113.895 38.4493 113.761 38.3319C113.431 38.0995 113.03 37.9882 112.627 38.0169C112.226 37.9838 111.826 38.0844 111.488 38.3029C111.379 38.3818 111.289 38.4854 111.227 38.6053C111.165 38.7252 111.132 38.858 111.131 38.9929C111.128 39.1018 111.149 39.21 111.193 39.3097C111.237 39.4095 111.302 39.4983 111.384 39.5699C111.782 39.8111 112.224 39.969 112.684 40.0339C113.175 40.1301 113.657 40.2689 114.124 40.4489C114.46 40.5888 114.75 40.8186 114.963 41.1129C115.146 41.3868 115.24 41.7099 115.234 42.0389C115.233 42.3877 115.128 42.7283 114.934 43.0179C114.724 43.3341 114.427 43.5825 114.079 43.7329C113.685 43.9078 113.257 43.9949 112.825 43.9879C112.32 44.0031 111.816 43.9157 111.345 43.7309C110.962 43.5721 110.636 43.3021 110.408 42.9559C110.182 42.6072 110.059 42.2016 110.054 41.7859L110.057 41.7869ZM117.898 43.8759V42.9659H118.808V43.8759H117.898ZM121.663 43.8759V37.3689H124.118C124.449 37.3619 124.78 37.3827 125.108 37.4309C125.394 37.4709 125.667 37.5734 125.908 37.7309C126.134 37.8916 126.313 38.108 126.43 38.3589C126.564 38.6356 126.633 38.9395 126.63 39.2469C126.642 39.7644 126.453 40.2662 126.102 40.6469C125.839 40.8669 125.535 41.0312 125.207 41.1301C124.878 41.2289 124.534 41.2602 124.193 41.2219H122.524V43.8759H121.663ZM122.524 40.4619H124.206C124.626 40.5014 125.045 40.3912 125.391 40.1509C125.51 40.04 125.604 39.9042 125.664 39.7531C125.725 39.6021 125.752 39.4395 125.742 39.2769C125.749 39.0277 125.677 38.7825 125.536 38.5769C125.406 38.3885 125.213 38.2523 124.992 38.1929C124.728 38.1445 124.46 38.1251 124.192 38.1349H122.527L122.524 40.4619ZM130.951 43.8759L128.43 37.3679H129.362L131.053 42.0959C131.187 42.4746 131.301 42.8296 131.395 43.1609C131.496 42.8056 131.613 42.4506 131.746 42.0959L133.504 37.3679H134.383L131.834 43.8759H130.951ZM138.174 43.8759V38.1359H136.03V37.3679H141.192V38.1359H139.039V43.8759H138.174ZM147.125 43.8759V37.3689H147.986V43.1099H151.186V43.8759H147.125ZM154.561 43.8759V38.1359H152.417V37.3679H157.575V38.1359H155.422V43.8759H154.561ZM159.822 43.8759V37.3689H162.064C162.453 37.3584 162.841 37.3896 163.223 37.4619C163.574 37.5371 163.902 37.6971 164.177 37.9279C164.526 38.2257 164.791 38.6089 164.947 39.0399C165.125 39.536 165.211 40.0601 165.202 40.5869C165.209 41.031 165.151 41.4738 165.029 41.9009C164.934 42.2393 164.784 42.5596 164.585 42.8489C164.424 43.0794 164.223 43.2792 163.992 43.4389C163.754 43.5923 163.491 43.7027 163.215 43.7649C162.872 43.8432 162.522 43.8805 162.17 43.8759H159.822ZM160.683 43.1079H162.072C162.413 43.1192 162.754 43.0788 163.082 42.9879C163.301 42.9232 163.501 42.8078 163.666 42.6509C163.887 42.4177 164.051 42.1358 164.143 41.8279C164.266 41.4216 164.324 40.9983 164.314 40.5739C164.346 40.0303 164.23 39.4883 163.979 39.0049C163.797 38.676 163.51 38.4173 163.164 38.2699C162.803 38.1636 162.426 38.1187 162.05 38.1369H160.683V43.1079Z" fill="white"/>
<path d="M69.4456 0.268978H39.2256C39.2256 0.268978 35.2256 -0.0640254 33.1556 5.67797C32.4744 8.04832 32.5509 10.5723 33.3746 12.897C33.3746 12.897 35.1486 17.488 39.2616 17.619H66.4616C66.7823 17.5815 67.1073 17.6165 67.4127 17.7215C67.718 17.8264 67.9959 17.9986 68.2258 18.2253C68.4557 18.4521 68.6317 18.7275 68.7409 19.0314C68.8501 19.3353 68.8896 19.6598 68.8566 19.981C68.8909 20.2858 68.8616 20.5945 68.7705 20.8874C68.6795 21.1803 68.5287 21.4512 68.3277 21.6829C68.1267 21.9147 67.8799 22.1022 67.6027 22.2337C67.3256 22.3652 67.0242 22.4378 66.7176 22.447H36.7936C36.7936 22.447 34.3616 22.223 34.1616 25.555C34.1616 25.555 34.1066 28.714 36.7026 28.714H67.1026C67.1026 28.714 70.8686 28.753 72.5876 24.381C73.6977 22.0142 73.8486 19.3096 73.0086 16.834C73.0086 16.834 71.5456 11.303 66.7016 11.342H39.1886C39.1886 11.342 37.4886 11.242 37.3236 8.93398C37.3236 8.93398 37.3236 6.58398 39.4806 6.44898H69.6466C69.6466 6.44898 71.6936 6.58598 71.9856 3.63798C71.9856 3.63798 72.3126 0.539978 69.4456 0.268978Z" fill="white"/>
<path d="M78.4922 23.625V26.015C78.4922 26.015 78.5112 28.715 80.7922 28.715C83.0732 28.715 83.2242 26.171 83.2242 26.171V9.57099C83.2242 9.57099 83.2052 7.97099 84.1392 9.34299C85.0522 10.682 95.3271 25.86 95.3271 25.86C95.3271 25.86 97.1732 28.72 99.7322 28.72C100.48 28.6939 101.208 28.4745 101.845 28.0834C102.483 27.6922 103.008 27.1426 103.37 26.488L112.548 12.81L114.942 9.34198C114.942 9.34198 115.785 7.86099 115.801 10.402C115.813 12.04 115.801 25.31 115.801 25.31C115.801 25.31 115.545 28.733 118.195 28.733C118.195 28.733 120.553 28.893 120.553 25.466V6.25299C120.553 6.25299 120.701 2.92898 118.506 0.993985C118.506 0.993985 115.142 -1.94501 111.54 4.09399L101.32 19.354C101.32 19.354 99.8392 22.037 97.9202 19.676L87.9081 4.79099C87.9081 4.79099 84.9271 -0.347012 81.9651 0.264988C81.9651 0.264988 78.4922 0.828989 78.4922 5.73599V23.625Z" fill="white"/>
<path d="M163.565 23.0208L157.677 17.6958C159.005 17.6069 160.28 17.1357 161.347 16.3391C162.414 15.5425 163.228 14.4544 163.691 13.2058C164.74 10.8675 164.897 8.22555 164.13 5.77983C164.13 5.77983 162.567 0.193826 157.796 0.193826H127.932C127.606 0.164366 127.277 0.207348 126.969 0.319688C126.661 0.432029 126.382 0.610959 126.152 0.84369C125.921 1.07642 125.745 1.3572 125.636 1.66597C125.526 1.97474 125.486 2.30387 125.519 2.62983V26.2638C125.538 26.9259 125.815 27.5543 126.292 28.0142C126.769 28.474 127.406 28.7288 128.069 28.7238C128.377 28.7221 128.681 28.6589 128.964 28.538C129.247 28.4171 129.504 28.2408 129.718 28.0197C129.932 27.7985 130.1 27.5368 130.212 27.2499C130.324 26.963 130.377 26.6566 130.369 26.3488V20.5708C130.369 20.5708 130.354 17.6178 132.384 17.6178H141.998C145.249 17.75 148.411 18.7192 151.178 20.4318C154.478 22.4588 157.532 24.8622 160.278 27.5938C160.278 27.5938 162.646 30.2808 164.551 27.7358C165.749 26.0348 165.242 24.4178 163.565 23.0208ZM130.373 11.3278V6.47283H157.298C157.617 6.44213 157.94 6.47569 158.247 6.57153C158.553 6.66736 158.837 6.82353 159.083 7.03085C159.328 7.23818 159.529 7.49246 159.675 7.77874C159.82 8.06502 159.907 8.37752 159.93 8.69783C159.93 11.6598 157.572 11.3278 157.572 11.3278H130.373Z" fill="white"/>
<path d="M17.1125 8.62691C16.0713 6.91265 14.6421 5.46691 12.9399 4.40616C11.2377 3.34541 9.31013 2.69931 7.3125 2.51991C10.9045 3.76239 13.9424 6.23341 15.8903 9.49713C17.8382 12.7609 18.571 16.6076 17.9595 20.3589C19.1871 19.152 20.6563 18.2185 22.2705 17.6199C23.3445 17.2283 24.4966 17.0987 25.6308 17.242C26.765 17.3854 27.8486 17.7974 28.7915 18.4439V2.07591C28.7915 -0.181087 26.2865 0.00391412 26.2865 0.00391412H14.2505C15.4592 1.0508 16.363 2.40441 16.8667 3.92204C17.3704 5.43966 17.4553 7.06507 17.1125 8.62691Z" fill="white"/>
<path d="M14.0206 22.5789C16.0256 18.3869 15.3466 15.4739 15.3466 15.4739C14.7576 13.3269 13.5786 13.7349 13.5786 13.7349C11.6368 13.9207 9.6804 13.5888 7.90857 12.7729C5.9548 11.4817 4.36728 9.7082 3.29956 7.62389C1.78056 4.87889 0.425568 2.73889 0.425568 2.73889C0.400568 2.70189 0.376563 2.6569 0.351562 2.6189V26.9839C0.351562 28.6129 2.34056 28.8339 2.34056 28.8339H6.54056C11.3156 28.3079 12.9646 24.7819 14.0206 22.5789Z" fill="white"/>
<path d="M26.9865 18.6938C25.9259 18.3444 24.7857 18.3161 23.709 18.6123C22.6324 18.9085 21.6672 19.5161 20.9345 20.3588C20.0425 21.2308 13.6875 28.8338 13.6875 28.8338H26.6925C26.9468 28.8707 27.2059 28.8538 27.4533 28.7843C27.7006 28.7149 27.9307 28.5943 28.1285 28.4305C28.3264 28.2666 28.4877 28.0631 28.6021 27.833C28.7165 27.603 28.7813 27.3515 28.7925 27.0948V19.6848C28.2502 19.2557 27.6397 18.9207 26.9865 18.6938Z" fill="white"/>
</svg>
