<svg width="114" height="35" viewBox="0 0 114 35" fill="none" xmlns="http://www.w3.org/2000/svg">
<g clip-path="url(#clip0_173_56)">
<g clip-path="url(#clip1_173_56)">
<path d="M0.429443 30.2096L0.973434 30.1595C0.989927 30.3469 1.05133 30.5277 1.15254 30.6869C1.26254 30.8373 1.41395 30.9531 1.58867 31.0205C1.79934 31.1081 2.02606 31.1514 2.25451 31.1478C2.45196 31.1515 2.64839 31.1189 2.83379 31.0515C2.98178 31.0015 3.11182 30.9099 3.20799 30.7878C3.28667 30.6822 3.32913 30.5544 3.32917 30.4232C3.33151 30.2957 3.28968 30.1712 3.21065 30.0705C3.10611 29.9527 2.97126 29.8652 2.82047 29.8173C2.56711 29.7343 2.30952 29.6646 2.04876 29.6083C1.76079 29.5502 1.48029 29.4605 1.21247 29.3406C1.02512 29.2505 0.865389 29.1126 0.749712 28.9411C0.647932 28.7814 0.594979 28.5959 0.597235 28.4071C0.597206 28.1908 0.6621 27.9795 0.78367 27.7999C0.916168 27.605 1.10613 27.4554 1.32766 27.3713C1.58033 27.2711 1.85052 27.2214 2.12267 27.2249C2.41341 27.2193 2.70232 27.2716 2.97228 27.3786C3.2028 27.4692 3.40014 27.6269 3.53825 27.8308C3.6711 28.0322 3.74486 28.2662 3.75132 28.5066L3.20133 28.5475C3.19524 28.4304 3.16552 28.3157 3.11395 28.2102C3.06238 28.1047 2.98998 28.0104 2.90104 27.933C2.68102 27.7798 2.41431 27.7064 2.14598 27.7254C1.87908 27.7035 1.6124 27.7698 1.38759 27.9139C1.31466 27.9659 1.25513 28.0342 1.21383 28.1132C1.17253 28.1923 1.15062 28.2798 1.14988 28.3688C1.14796 28.4406 1.16206 28.5119 1.19118 28.5777C1.2203 28.6434 1.26372 28.702 1.31834 28.7493C1.58294 28.9083 1.87744 29.0123 2.18393 29.0552C2.51097 29.1185 2.8318 29.2101 3.14274 29.3288C3.36612 29.421 3.55944 29.5725 3.70138 29.7666C3.82287 29.9471 3.88582 30.1601 3.88182 30.3771C3.88091 30.607 3.81142 30.8316 3.68207 31.0225C3.54243 31.2309 3.34465 31.3947 3.11278 31.4939C2.85056 31.6085 2.56638 31.6654 2.27981 31.6607C1.94337 31.6707 1.60837 31.613 1.29503 31.4913C1.03992 31.3867 0.82236 31.2087 0.670477 30.9803C0.518135 30.7512 0.434557 30.4839 0.429443 30.2096ZM6.67502 31.5875V27.8032H5.24746V27.2968H8.68186V27.8032H7.24897V31.5875H6.67502ZM9.59006 31.5875V30.9876H10.196V31.5875H9.59006ZM14.6691 31.5875V27.2975H15.5347L16.5601 30.3355C16.6546 30.6186 16.7236 30.8302 16.7671 30.9704C16.8164 30.8144 16.8932 30.5852 16.9975 30.2828L18.0349 27.2975H18.8066V31.5875H18.254V27.997L16.9922 31.5875H16.4762L15.2231 27.935V31.5875H14.6691ZM20.1616 31.5875L21.8262 27.2968H22.4441L24.2166 31.5875H23.5634L23.058 30.2914H21.2462L20.7702 31.5875H20.1616ZM21.412 29.8259H22.8809L22.4288 28.6391C22.2907 28.2783 22.1882 27.9818 22.1212 27.7498C22.0649 28.0285 21.9867 28.3025 21.8874 28.5693L21.412 29.8259ZM25.5915 31.5875V27.2975H27.5125C27.8106 27.2847 28.1088 27.3238 28.3934 27.4128C28.596 27.4911 28.7659 27.6349 28.8754 27.821C28.9956 28.0156 29.0581 28.2397 29.0559 28.4677C29.0628 28.753 28.9553 29.0294 28.7569 29.2365C28.5041 29.4687 28.1787 29.6083 27.8347 29.6321C27.9593 29.6872 28.0756 29.7591 28.1803 29.8457C28.3626 30.0154 28.5225 30.2073 28.6564 30.4166L29.4101 31.5875H28.689L28.1157 30.6948C27.9484 30.4373 27.8105 30.2395 27.7022 30.1015C27.6212 29.9912 27.523 29.8944 27.4113 29.8147C27.3311 29.7625 27.2426 29.7239 27.1496 29.7006C27.0441 29.684 26.9374 29.6772 26.8306 29.6802H26.1648V31.5875H25.5915ZM26.1648 29.1903H27.3959C27.6039 29.198 27.8117 29.1708 28.0105 29.1099C28.1487 29.0635 28.2673 28.9728 28.3474 28.8521C28.4231 28.7377 28.4632 28.6038 28.4626 28.4671C28.4651 28.3725 28.4464 28.2786 28.4078 28.1921C28.3693 28.1055 28.3118 28.0285 28.2396 27.9667C28.0364 27.8185 27.7859 27.7483 27.5344 27.7689H26.1628L26.1648 29.1903ZM31.9736 31.5875V29.7705L30.3037 27.2975H31.0015L31.8571 28.591C32.0146 28.8328 32.1614 29.0745 32.2972 29.3162C32.4272 29.0921 32.5848 28.8394 32.7699 28.5581L33.6082 27.2975H34.2741L32.5429 29.7705V31.5875H31.9736ZM35.5025 30.2089L36.0432 30.1621C36.0597 30.3495 36.1211 30.5304 36.2223 30.6896C36.3323 30.8399 36.4837 30.9558 36.6584 31.0232C36.8691 31.1107 37.0958 31.1541 37.3243 31.1504C37.5217 31.1542 37.7182 31.1215 37.9036 31.0542C38.0515 31.0042 38.1816 30.9125 38.2778 30.7904C38.3574 30.6843 38.4004 30.5555 38.4003 30.4232C38.4026 30.2957 38.3608 30.1712 38.2817 30.0705C38.1772 29.9527 38.0424 29.8652 37.8916 29.8173C37.6373 29.734 37.3789 29.664 37.1172 29.6077C36.8292 29.5496 36.5487 29.4598 36.2809 29.34C36.0935 29.2499 35.9338 29.112 35.8181 28.9404C35.7164 28.7807 35.6634 28.5953 35.6657 28.4064C35.6656 28.1902 35.7305 27.9788 35.8521 27.7992C35.9846 27.6043 36.1746 27.4547 36.3961 27.3707C36.6488 27.2704 36.9189 27.2207 37.1911 27.2243C37.4818 27.2187 37.7708 27.2709 38.0407 27.3779C38.2712 27.4685 38.4686 27.6262 38.6067 27.8302C38.7395 28.0316 38.8133 28.2655 38.8197 28.506L38.2698 28.5468C38.2637 28.4298 38.234 28.3151 38.1824 28.2095C38.1308 28.104 38.0584 28.0098 37.9695 27.9324C37.7495 27.7791 37.4827 27.7057 37.2144 27.7247C36.9475 27.7028 36.6808 27.7692 36.456 27.9133C36.3831 27.9653 36.3236 28.0335 36.2823 28.1126C36.241 28.1916 36.2191 28.2792 36.2183 28.3682C36.2164 28.44 36.2305 28.5113 36.2596 28.577C36.2887 28.6428 36.3321 28.7014 36.3868 28.7486C36.6514 28.9076 36.9459 29.0117 37.2524 29.0545C37.5794 29.1179 37.9002 29.2094 38.2112 29.3281C38.4346 29.4203 38.6279 29.5718 38.7698 29.7659C38.8913 29.9465 38.9543 30.1595 38.9502 30.3764C38.9493 30.6063 38.8798 30.8309 38.7505 31.0219C38.6109 31.2303 38.4131 31.3941 38.1812 31.4933C37.9197 31.6078 37.6362 31.6649 37.3502 31.6607C37.0136 31.6707 36.6783 31.6131 36.3648 31.4913C36.1099 31.3865 35.8926 31.2086 35.7409 30.9803C35.5897 30.7508 35.5073 30.4836 35.5032 30.2096L35.5025 30.2089ZM43.2429 31.5875V27.2975H45.1639C45.4621 27.2847 45.7602 27.3238 46.0448 27.4128C46.2474 27.4911 46.4173 27.6349 46.5268 27.821C46.647 28.0156 46.7095 28.2397 46.7073 28.4677C46.714 28.7531 46.6063 29.0295 46.4077 29.2365C46.1549 29.4687 45.8294 29.6083 45.4855 29.6321C45.61 29.6872 45.7263 29.7591 45.831 29.8457C46.0133 30.0176 46.1728 30.2116 46.3058 30.4232L47.0608 31.5875H46.3397L45.7664 30.6948C45.5991 30.4373 45.4613 30.2395 45.353 30.1015C45.2719 29.9912 45.1737 29.8944 45.062 29.8147C44.9818 29.7625 44.8934 29.7239 44.8003 29.7006C44.6949 29.684 44.5881 29.6772 44.4814 29.6802H43.8155V31.5875H43.2429ZM43.8162 29.1903H45.0487C45.2566 29.198 45.4644 29.1708 45.6632 29.1099C45.8014 29.0635 45.92 28.9728 46.0002 28.8521C46.0759 28.7377 46.1159 28.6038 46.1153 28.4671C46.1179 28.3725 46.0991 28.2786 46.0606 28.1921C46.022 28.1055 45.9645 28.0285 45.8923 27.9667C45.6891 27.8185 45.4386 27.7483 45.1872 27.7689H43.8155L43.8162 29.1903ZM51.3562 27.2975H51.9295V29.7764C51.9422 30.1248 51.8922 30.4726 51.7816 30.8036C51.6786 31.0629 51.4911 31.2808 51.249 31.4227C50.94 31.5948 50.5883 31.6772 50.2342 31.6607C49.8891 31.6747 49.5458 31.6033 49.2355 31.453C48.9855 31.3233 48.7898 31.1104 48.6828 30.8518C48.5587 30.5071 48.5025 30.1421 48.517 29.7764V27.2975H49.0903V29.7731C49.077 30.0518 49.1126 30.3306 49.1955 30.5973C49.2635 30.7712 49.3913 30.9157 49.5564 31.0054C49.7486 31.1063 49.9641 31.1558 50.1816 31.1491C50.3435 31.165 50.507 31.148 50.662 31.0992C50.8171 31.0503 50.9604 30.9706 51.0832 30.8649C51.2993 30.5435 51.3937 30.1568 51.3495 29.7731L51.3562 27.2975ZM53.7685 31.5875V27.2975H55.3945C55.6671 27.2873 55.9389 27.3322 56.1935 27.4293C56.3883 27.5116 56.5525 27.6517 56.6636 27.8302C56.7735 27.9991 56.8324 28.1956 56.8334 28.3965C56.8335 28.5798 56.7813 28.7595 56.6829 28.9147C56.5711 29.0842 56.4129 29.2187 56.2268 29.3024C56.4657 29.3633 56.6781 29.4999 56.8314 29.6914C56.9733 29.8783 57.0476 30.107 57.0424 30.3408C57.044 30.5349 57 30.7268 56.9139 30.9012C56.8415 31.0574 56.7327 31.1943 56.5963 31.3007C56.454 31.4018 56.2929 31.474 56.1222 31.513C55.893 31.5651 55.6582 31.5893 55.4231 31.5849L53.7685 31.5875ZM54.3418 29.1H55.2786C55.4623 29.1074 55.6461 29.0908 55.8253 29.0506C55.956 29.0175 56.072 28.9424 56.1549 28.8369C56.2317 28.7273 56.2705 28.5958 56.2654 28.4625C56.2681 28.33 56.2323 28.1995 56.1622 28.0867C56.0944 27.9793 55.9892 27.9003 55.8666 27.8645C55.6506 27.8153 55.4288 27.7951 55.2074 27.8045H54.3418V29.1ZM54.3418 31.0812H55.4205C55.5509 31.0845 55.6813 31.0777 55.8106 31.0608C55.9282 31.043 56.0412 31.0032 56.1436 30.9434C56.2363 30.8842 56.3116 30.8019 56.362 30.7047C56.4209 30.5934 56.4504 30.4691 56.4478 30.3434C56.4515 30.1949 56.4082 30.049 56.324 29.9261C56.2405 29.8076 56.1193 29.7201 55.9798 29.6775C55.7733 29.6223 55.5596 29.5981 55.3459 29.6057H54.3471L54.3418 31.0812ZM58.7137 31.5875V27.2975H60.339C60.6116 27.2873 60.8835 27.3322 61.138 27.4293C61.3328 27.5116 61.497 27.6517 61.6081 27.8302C61.718 27.9991 61.7769 28.1956 61.7779 28.3965C61.778 28.5798 61.7259 28.7595 61.6274 28.9147C61.5165 29.0858 61.3585 29.222 61.172 29.307C61.4109 29.368 61.6232 29.5046 61.7766 29.696C61.9185 29.8829 61.9928 30.1116 61.9876 30.3454C61.9892 30.5396 61.9452 30.7314 61.8591 30.9058C61.7867 31.062 61.6778 31.199 61.5415 31.3054C61.3992 31.4064 61.2381 31.4786 61.0674 31.5177C60.8382 31.5697 60.6034 31.5939 60.3683 31.5895L58.7137 31.5875ZM59.2896 29.1H60.2218C60.4054 29.1074 60.5892 29.0908 60.7685 29.0506C60.8992 29.0175 61.0152 28.9424 61.0981 28.8369C61.175 28.7273 61.2138 28.5959 61.2086 28.4625C61.2113 28.33 61.1755 28.1995 61.1054 28.0867C61.0376 27.9793 60.9324 27.9003 60.8098 27.8645C60.5938 27.8153 60.372 27.7951 60.1506 27.8045H59.2896V29.1ZM59.2896 31.0825H60.3683C60.4974 31.0852 60.6265 31.0779 60.7545 31.0608C60.872 31.043 60.985 31.0032 61.0874 30.9434C61.1801 30.8842 61.2554 30.8019 61.3058 30.7047C61.3647 30.5934 61.3943 30.4691 61.3917 30.3434C61.3954 30.1949 61.3521 30.049 61.2679 29.9261C61.1843 29.8076 61.0631 29.7201 60.9236 29.6775C60.7172 29.6223 60.5035 29.5981 60.2897 29.6057H59.2896V31.0825ZM63.6968 31.5889V27.2975H66.8296V27.8038H64.2681V29.1178H66.6652V29.6215H64.2681V31.0825H66.9315V31.5875L63.6968 31.5889ZM68.6394 31.5889V27.2975H70.5603C70.8585 27.2847 71.1566 27.3238 71.4412 27.4128C71.6438 27.4911 71.8137 27.6349 71.9233 27.821C72.0434 28.0156 72.1059 28.2397 72.1037 28.4677C72.111 28.7532 72.0037 29.0298 71.8054 29.2371C71.5526 29.4693 71.2272 29.6089 70.8832 29.6327C71.0078 29.6879 71.1241 29.7598 71.2288 29.8463C71.4111 30.0161 71.571 30.2079 71.7049 30.4173L72.456 31.5875H71.7348L71.1616 30.6948C70.9942 30.4373 70.8564 30.2395 70.7481 30.1015C70.667 29.9912 70.5688 29.8944 70.4571 29.8147C70.3769 29.7625 70.2885 29.7239 70.1954 29.7006C70.09 29.684 69.9832 29.6772 69.8765 29.6802H69.2107V31.5875L68.6394 31.5889ZM69.2127 29.1916H70.4451C70.6531 29.1993 70.8609 29.1721 71.0597 29.1112C71.1979 29.0649 71.3165 28.9741 71.3966 28.8534C71.4723 28.739 71.5124 28.6051 71.5118 28.4684C71.5143 28.3738 71.4956 28.2799 71.457 28.1934C71.4184 28.1068 71.361 28.0299 71.2887 27.968C71.0856 27.8198 70.8351 27.7496 70.5836 27.7702H69.2107L69.2127 29.1916ZM73.7151 30.2103L74.2557 30.1635C74.2722 30.3509 74.3336 30.5317 74.4348 30.6909C74.5448 30.8413 74.6962 30.9571 74.871 31.0245C75.0816 31.1121 75.3083 31.1554 75.5368 31.1517C75.7342 31.1555 75.9307 31.1228 76.1161 31.0555C76.2641 31.0055 76.3941 30.9138 76.4903 30.7918C76.57 30.6856 76.6129 30.5568 76.6128 30.4245C76.6151 30.297 76.5733 30.1725 76.4943 30.0718C76.3897 29.954 76.2549 29.8665 76.1041 29.8186C75.8507 29.7356 75.5931 29.6659 75.3324 29.6096C75.0444 29.5516 74.7639 29.4618 74.4961 29.342C74.3087 29.2518 74.149 29.1139 74.0333 28.9424C73.9315 28.7827 73.8786 28.5972 73.8809 28.4084C73.8808 28.1922 73.9457 27.9808 74.0673 27.8012C74.1998 27.6063 74.3897 27.4567 74.6113 27.3726C74.8628 27.2722 75.1318 27.2218 75.403 27.2243C75.6937 27.2187 75.9826 27.2709 76.2526 27.3779C76.4831 27.4685 76.6804 27.6262 76.8185 27.8302C76.9514 28.0316 77.0251 28.2655 77.0316 28.506L76.4816 28.5468C76.4755 28.4298 76.4458 28.3151 76.3942 28.2095C76.3427 28.104 76.2703 28.0098 76.1813 27.9324C75.9613 27.7791 75.6946 27.7057 75.4263 27.7247C75.1594 27.7028 74.8927 27.7692 74.6679 27.9133C74.5949 27.9653 74.5354 28.0335 74.4941 28.1126C74.4528 28.1916 74.4309 28.2792 74.4302 28.3682C74.4283 28.44 74.4424 28.5113 74.4715 28.577C74.5006 28.6428 74.544 28.7014 74.5986 28.7486C74.8632 28.9076 75.1577 29.0117 75.4642 29.0545C75.7913 29.1179 76.1121 29.2094 76.423 29.3281C76.6464 29.4203 76.8397 29.5718 76.9817 29.7659C77.1032 29.9465 77.1661 30.1595 77.1621 30.3764C77.1612 30.6063 77.0917 30.8309 76.9624 31.0219C76.8227 31.2303 76.6249 31.3941 76.3931 31.4933C76.1303 31.6086 75.8454 31.6659 75.5581 31.6614C75.2214 31.6714 74.8862 31.6138 74.5727 31.4919C74.3178 31.3872 74.1005 31.2092 73.9488 30.981C73.7982 30.7511 73.7165 30.4836 73.7131 30.2096L73.7151 30.2103ZM78.9359 31.5875V30.9876H79.5418V31.5875H78.9359ZM81.4428 31.5875V27.2975H83.0774C83.2979 27.2928 83.5184 27.3065 83.7366 27.3383C83.9267 27.3647 84.1086 27.4322 84.2693 27.5361C84.4194 27.6421 84.5391 27.7847 84.6168 27.9502C84.7063 28.1325 84.7518 28.3329 84.75 28.5356C84.7579 28.8768 84.6318 29.2076 84.3985 29.4587C84.2235 29.6037 84.0206 29.712 83.8021 29.7772C83.5837 29.8423 83.3541 29.863 83.1274 29.8378H82.0161V31.5875H81.4428ZM82.0161 29.3367H83.136C83.4152 29.3627 83.6947 29.2901 83.925 29.1316C84.0044 29.0585 84.0665 28.969 84.1069 28.8694C84.1473 28.7698 84.165 28.6626 84.1588 28.5554C84.1636 28.3911 84.1156 28.2295 84.0216 28.0939C83.935 27.9696 83.8066 27.8799 83.6594 27.8407C83.4837 27.8088 83.3051 27.796 83.1267 27.8025H82.0181L82.0161 29.3367ZM87.6271 31.5875L85.9485 27.2968H86.5691L87.695 30.414C87.7838 30.6636 87.8597 30.8977 87.9227 31.1161C87.9898 30.8819 88.0677 30.6478 88.1565 30.414L89.327 27.2968H89.9123L88.215 31.5875H87.6271ZM92.4365 31.5875V27.8032H91.0089V27.2968H94.446V27.8032H93.0124V31.5875H92.4365ZM98.3964 31.5875V27.2975H98.9697V31.0825H101.1V31.5875H98.3964ZM103.348 31.5875V27.8032H101.92V27.2968H105.354V27.8032H103.921V31.5875H103.348ZM106.851 31.5875V27.2975H108.343C108.602 27.2905 108.861 27.3111 109.115 27.3588C109.349 27.4083 109.567 27.5138 109.75 27.666C109.982 27.8623 110.159 28.115 110.263 28.3992C110.381 28.7262 110.439 29.0718 110.433 29.4191C110.437 29.7119 110.399 30.0038 110.318 30.2854C110.254 30.5085 110.155 30.7197 110.022 30.9104C109.915 31.0624 109.781 31.1941 109.627 31.2994C109.469 31.4005 109.294 31.4733 109.11 31.5144C108.882 31.566 108.648 31.5905 108.414 31.5875H106.851ZM107.424 31.0812H108.349C108.576 31.0886 108.802 31.062 109.021 31.0021C109.167 30.9594 109.3 30.8833 109.41 30.7799C109.557 30.6261 109.666 30.4403 109.728 30.2373C109.809 29.9694 109.848 29.6903 109.842 29.4105C109.862 29.0521 109.785 28.6948 109.618 28.3761C109.497 28.1592 109.306 27.9886 109.076 27.8915C108.835 27.8214 108.585 27.7918 108.334 27.8038H107.424V31.0812Z" fill="#001B3B"/>
<path d="M46.6651 2.83733H26.5434C26.5434 2.83733 23.8801 2.61778 22.5018 6.40349C22.0482 7.96625 22.0992 9.63031 22.6476 11.163C22.6476 11.163 23.8288 14.1898 26.5674 14.2762H44.6782C44.8918 14.2515 45.1082 14.2746 45.3115 14.3438C45.5148 14.413 45.6998 14.5265 45.8529 14.676C46.006 14.8255 46.1232 15.0071 46.1959 15.2074C46.2686 15.4078 46.2949 15.6217 46.2729 15.8335C46.2957 16.0344 46.2762 16.2379 46.2156 16.4311C46.155 16.6242 46.0546 16.8028 45.9208 16.9556C45.7869 17.1084 45.6226 17.232 45.438 17.3187C45.2535 17.4054 45.0528 17.4533 44.8487 17.4593H24.9241C24.9241 17.4593 23.3048 17.3116 23.1716 19.5084C23.1716 19.5084 23.135 21.5911 24.8635 21.5911H45.105C45.105 21.5911 47.6126 21.6169 48.7572 18.7344C49.4963 17.174 49.5968 15.3908 49.0375 13.7586C49.0375 13.7586 48.0633 10.1121 44.838 10.1378H26.5188C26.5188 10.1378 25.3869 10.0718 25.277 8.55017C25.277 8.55017 25.277 7.00082 26.7132 6.91181H46.7989C46.7989 6.91181 48.1619 7.00214 48.3563 5.05852C48.3563 5.05852 48.5741 3.016 46.6651 2.83733Z" fill="#001B3B"/>
<path d="M52.6953 18.2359V19.8116C52.6953 19.8116 52.708 21.5918 54.2267 21.5918C55.7455 21.5918 55.8461 19.9145 55.8461 19.9145V8.9701C55.8461 8.9701 55.8334 7.91522 56.4553 8.81979C57.0632 9.70259 63.9047 19.7095 63.9047 19.7095C63.9047 19.7095 65.1339 21.5951 66.8377 21.5951C67.3355 21.5778 67.8202 21.4332 68.2447 21.1753C68.6692 20.9174 69.019 20.5551 69.2601 20.1235L75.3711 11.1056L76.9651 8.81912C76.9651 8.81912 77.5264 7.8427 77.5371 9.51798C77.5451 10.5979 77.5371 19.3468 77.5371 19.3468C77.5371 19.3468 77.3667 21.6036 79.1311 21.6036C79.1311 21.6036 80.7012 21.7091 80.7012 19.4497V6.78254C80.7012 6.78254 80.7997 4.59103 79.3382 3.31528C79.3382 3.31528 77.0983 1.3776 74.7 5.35912L67.8951 15.42C67.8951 15.42 66.909 17.1889 65.6312 15.6323L58.9648 5.81865C58.9648 5.81865 56.98 2.43116 55.0077 2.83465C55.0077 2.83465 52.6953 3.2065 52.6953 6.44169V18.2359Z" fill="#001B3B"/>
<path d="M109.332 17.8378L105.412 14.327C106.296 14.2684 107.145 13.9577 107.855 13.4325C108.566 12.9073 109.108 12.1899 109.416 11.3667C110.115 9.82507 110.219 8.08325 109.708 6.47078C109.708 6.47078 108.668 2.78792 105.491 2.78792H85.6062C85.3889 2.7685 85.17 2.79684 84.9652 2.8709C84.7603 2.94497 84.5745 3.06294 84.421 3.21638C84.2675 3.36982 84.1501 3.55494 84.0772 3.75851C84.0044 3.96208 83.9778 4.17908 83.9995 4.39398V19.9759C84.012 20.4124 84.1968 20.8267 84.5142 21.1299C84.8316 21.4331 85.2564 21.6011 85.6974 21.5978C85.9024 21.5966 86.1051 21.555 86.2937 21.4752C86.4822 21.3955 86.6528 21.2793 86.7954 21.1335C86.9381 20.9877 87.0498 20.8151 87.1243 20.626C87.1987 20.4368 87.2342 20.2349 87.2288 20.0319V16.2225C87.2288 16.2225 87.2188 14.2756 88.5705 14.2756H94.9719C97.1367 14.3627 99.2421 15.0017 101.084 16.1309C103.282 17.4672 105.315 19.0518 107.143 20.8528C107.143 20.8528 108.72 22.6243 109.989 20.9464C110.786 19.8249 110.449 18.7588 109.332 17.8378ZM87.2315 10.1286V6.92767H105.159C105.372 6.90744 105.587 6.92956 105.791 6.99275C105.995 7.05593 106.184 7.15889 106.348 7.29558C106.511 7.43227 106.645 7.59992 106.742 7.78866C106.839 7.97741 106.896 8.18344 106.912 8.39462C106.912 10.3475 105.342 10.1286 105.342 10.1286H87.2315Z" fill="#001B3B"/>
<path d="M11.8299 8.34773C11.1367 7.21751 10.185 6.26433 9.05162 5.56498C7.91822 4.86562 6.63479 4.43965 5.30469 4.32138C7.69639 5.14054 9.71911 6.76969 11.0161 8.92146C12.3131 11.0732 12.801 13.6094 12.3939 16.0826C13.2113 15.2869 14.1895 14.6715 15.2643 14.2768C15.9795 14.0186 16.7465 13.9332 17.5017 14.0277C18.2569 14.1222 18.9784 14.3938 19.6062 14.8201V4.02865C19.6062 2.5406 17.9383 2.66258 17.9383 2.66258H9.92427C10.7291 3.35279 11.3309 4.24523 11.6663 5.2458C12.0017 6.24637 12.0582 7.318 11.8299 8.34773Z" fill="#001B3B"/>
<path d="M9.76543 17.5464C11.1004 14.7826 10.6483 12.862 10.6483 12.862C10.2561 11.4465 9.47112 11.7155 9.47112 11.7155C8.1782 11.838 6.87557 11.6192 5.69582 11.0813C4.39492 10.23 3.33788 9.0607 2.62696 7.68652C1.61555 5.87674 0.713338 4.46583 0.713338 4.46583C0.696692 4.44144 0.680708 4.41177 0.664062 4.38672V20.4506C0.664062 21.5246 1.98842 21.6703 1.98842 21.6703H4.78494C7.96432 21.3235 9.0623 18.9988 9.76543 17.5464Z" fill="#001B3B"/>
<path d="M18.4019 14.985C17.6957 14.7547 16.9365 14.736 16.2196 14.9313C15.5027 15.1266 14.86 15.5271 14.3722 16.0828C13.7783 16.6577 9.54688 21.6703 9.54688 21.6703H18.2061C18.3754 21.6946 18.548 21.6835 18.7127 21.6377C18.8774 21.5919 19.0305 21.5124 19.1623 21.4044C19.294 21.2964 19.4015 21.1622 19.4776 21.0105C19.5538 20.8588 19.5969 20.693 19.6044 20.5238V15.6384C19.2433 15.3555 18.8368 15.1346 18.4019 14.985Z" fill="#001B3B"/>
</g>
</g>
<defs>
<clipPath id="clip0_173_56">
<rect width="112.66" height="34.3198" fill="white" transform="translate(0.429688)"/>
</clipPath>
<clipPath id="clip1_173_56">
<rect width="110" height="29" fill="white" transform="translate(0.429688 2.65991)"/>
</clipPath>
</defs>
</svg>
