<svg width="23" height="19" viewBox="0 0 23 19" fill="none" xmlns="http://www.w3.org/2000/svg">
<mask id="mask0_1_413" style="mask-type:luminance" maskUnits="userSpaceOnUse" x="0" y="0" width="23" height="19">
<path d="M22.62 0H0V18.85H22.62V0Z" fill="white"/>
</mask>
<g mask="url(#mask0_1_413)">
<mask id="mask1_1_413" style="mask-type:luminance" maskUnits="userSpaceOnUse" x="1" y="0" width="21" height="19">
<path d="M21.1456 0H1.47656V18.85H21.1456V0Z" fill="white"/>
</mask>
<g mask="url(#mask1_1_413)">
<path d="M5.56056 2.04909C5.55831 2.55574 5.3677 3.04345 5.02579 3.41735C4.68388 3.79125 4.21512 4.02462 3.71069 4.07206C3.20625 4.1195 2.70221 3.97762 2.29658 3.67402C1.89095 3.37042 1.61275 2.92681 1.51608 2.42945C1.41941 1.9321 1.51118 1.41657 1.77354 0.983131C2.03591 0.549692 2.45011 0.229332 2.93559 0.0843596C3.42106 -0.0606128 3.94311 -0.0198327 4.40018 0.198768C4.85726 0.417369 5.21669 0.798162 5.40856 1.26709C5.5103 1.51518 5.56196 1.78095 5.56056 2.04909ZM5.57656 5.73709H1.47656V18.8501H5.57656V5.73709ZM12.1146 5.73709H8.04756V18.8501H12.1236V11.9681C12.1236 8.14109 17.0646 7.82809 17.0646 11.9681V18.8501H21.1526V10.5501C21.1526 4.09208 13.8406 4.32709 12.1206 7.50709L12.1146 5.73709Z" fill="#CDD3DA"/>
</g>
</g>
</svg>
