<svg width="24" height="19" viewBox="0 0 24 19" fill="none" xmlns="http://www.w3.org/2000/svg">
<mask id="mask0_1_400" style="mask-type:luminance" maskUnits="userSpaceOnUse" x="0" y="0" width="24" height="19">
<path d="M23.2372 0H0.617188V18.85H23.2372V0Z" fill="white"/>
</mask>
<g mask="url(#mask0_1_400)">
<mask id="mask1_1_400" style="mask-type:luminance" maskUnits="userSpaceOnUse" x="0" y="1" width="24" height="17">
<path d="M23.2372 1.521H0.617188V17.33H23.2372V1.521Z" fill="white"/>
</mask>
<g mask="url(#mask1_1_400)">
<path d="M22.7652 3.96201C22.6343 3.49205 22.3842 3.06386 22.0393 2.7189C21.6943 2.37394 21.2661 2.1239 20.7961 1.99301C19.0351 1.52101 11.9371 1.52101 11.9371 1.52101C11.9371 1.52101 4.85915 1.51201 3.07815 1.99301C2.60819 2.1239 2.18 2.37394 1.83504 2.7189C1.49008 3.06386 1.24004 3.49205 1.10914 3.96201C0.775023 5.76703 0.61031 7.59933 0.617148 9.43501C0.611581 11.2637 0.776289 13.0889 1.10914 14.887C1.24004 15.357 1.49008 15.7852 1.83504 16.1301C2.18 16.4751 2.60819 16.7251 3.07815 16.856C4.83915 17.329 11.9371 17.329 11.9371 17.329C11.9371 17.329 19.0141 17.329 20.7961 16.856C21.2661 16.7251 21.6943 16.4751 22.0393 16.1301C22.3842 15.7852 22.6343 15.357 22.7652 14.887C23.0913 13.0883 23.2493 11.263 23.2372 9.43501C23.2506 7.59996 23.0926 5.76766 22.7652 3.96201ZM9.67315 12.821V6.03901L15.5791 9.43901L9.67315 12.821Z" fill="#CDD3DA"/>
</g>
</g>
</svg>
