<svg width="23" height="19" viewBox="0 0 23 19" fill="none" xmlns="http://www.w3.org/2000/svg">
<mask id="mask0_1_383" style="mask-type:luminance" maskUnits="userSpaceOnUse" x="0" y="0" width="23" height="19">
<path d="M22.8622 0H0.242188V18.85H22.8622V0Z" fill="white"/>
</mask>
<g mask="url(#mask0_1_383)">
<mask id="mask1_1_383" style="mask-type:luminance" maskUnits="userSpaceOnUse" x="0" y="0" width="23" height="19">
<path d="M22.8622 0H0.242188V18.85H22.8622V0Z" fill="white"/>
</mask>
<g mask="url(#mask1_1_383)">
<mask id="mask2_1_383" style="mask-type:luminance" maskUnits="userSpaceOnUse" x="2" y="0" width="19" height="19">
<path d="M20.9828 0H2.13281V18.85H20.9828V0Z" fill="white"/>
</mask>
<g mask="url(#mask2_1_383)">
<path d="M11.7261 14.471C10.5963 14.4729 9.50082 14.0829 8.6264 13.3674C7.75198 12.652 7.15278 11.6554 6.93096 10.5475C6.70914 9.43969 6.87843 8.28922 7.40997 7.29224C7.9415 6.29526 8.80238 5.51351 9.84583 5.08025C10.8893 4.64699 12.0507 4.58906 13.1321 4.91633C14.2135 5.2436 15.1479 5.93581 15.776 6.87494C16.4041 7.81408 16.687 8.942 16.5765 10.0664C16.4661 11.1908 15.969 12.2421 15.1701 13.041C14.2571 13.9554 13.0183 14.4697 11.7261 14.471ZM11.7261 6.61603C11.0357 6.6131 10.3656 6.8498 9.83013 7.28575C9.29469 7.72169 8.92704 8.32989 8.78993 9.00661C8.65281 9.68333 8.75469 10.3867 9.07821 10.9967C9.40172 11.6066 9.92683 12.0855 10.564 12.3516C11.2011 12.6177 11.9108 12.6545 12.5721 12.4558C13.2333 12.257 13.8052 11.8351 14.1901 11.2618C14.575 10.6886 14.7491 9.99955 14.6827 9.31228C14.6163 8.625 14.3136 7.98203 13.8261 7.49303C13.2698 6.9342 12.5146 6.61882 11.7261 6.61603Z" fill="#CDD3DA"/>
<path d="M15.3678 18.85H7.7478C6.25918 18.8481 4.83207 18.256 3.77945 17.2034C2.72683 16.1507 2.13466 14.7236 2.13281 13.235V5.615C2.13467 4.12603 2.7271 2.69861 3.78015 1.64594C4.8332 0.593263 6.26083 0.00132308 7.7498 0L15.3698 0C16.8584 0.00185234 18.2855 0.594026 19.3382 1.64664C20.3908 2.69926 20.983 4.12638 20.9848 5.615V13.234C20.9832 14.7231 20.3909 16.1508 19.3378 17.2037C18.2847 18.2566 16.857 18.8487 15.3678 18.85ZM7.7498 1.9C6.76396 1.90132 5.81889 2.2936 5.12189 2.99079C4.42488 3.68798 4.03287 4.63316 4.03181 5.619V13.238C4.03261 14.224 4.42451 15.1694 5.12154 15.8669C5.81857 16.5643 6.76379 16.9567 7.7498 16.958H15.3698C16.3557 16.9567 17.3009 16.5644 17.9981 15.8673C18.6952 15.1701 19.0875 14.2249 19.0888 13.239V5.615C19.0864 4.62941 18.6934 3.68496 17.996 2.98861C17.2985 2.29225 16.3534 1.90079 15.3678 1.9H7.7498ZM16.4448 5.758C16.1743 5.75967 15.9115 5.66745 15.7014 5.49707C15.4912 5.32669 15.3467 5.08869 15.2924 4.82365C15.2381 4.55861 15.2774 4.28294 15.4036 4.04364C15.5298 3.80435 15.7351 3.61624 15.9845 3.51138C16.2339 3.40653 16.512 3.39143 16.7713 3.46866C17.0306 3.54588 17.255 3.71065 17.4064 3.93487C17.5578 4.15909 17.6267 4.42888 17.6015 4.69824C17.5762 4.96761 17.4583 5.21986 17.2678 5.412C17.0496 5.63058 16.7536 5.75359 16.4448 5.754V5.758Z" fill="#CDD3DA"/>
</g>
</g>
</g>
</svg>
