<svg width="24" height="19" viewBox="0 0 24 19" fill="none" xmlns="http://www.w3.org/2000/svg">
<mask id="mask0_1_373" style="mask-type:luminance" maskUnits="userSpaceOnUse" x="0" y="0" width="24" height="19">
<path d="M23.4794 0H0.859375V18.85H23.4794V0Z" fill="white"/>
</mask>
<g mask="url(#mask0_1_373)">
<mask id="mask1_1_373" style="mask-type:luminance" maskUnits="userSpaceOnUse" x="7" y="0" width="10" height="19">
<path d="M16.8781 0H7.45312V18.85H16.8781V0Z" fill="white"/>
</mask>
<g mask="url(#mask1_1_373)">
<path d="M16.3611 3.33415C15.8262 3.17548 15.272 3.09103 14.7141 3.08315C14.0441 3.08315 12.6011 3.50915 12.6011 4.33615V6.31715H16.0281V9.64715H12.6031V18.8472H9.15314V9.64715H7.45312V6.31715H9.15314V4.63815C9.15114 2.10115 10.3361 0.0011524 13.1941 0.0011524C14.4327 -0.036626 15.6708 0.0898067 16.8761 0.377152L16.3611 3.33415Z" fill="#CDD3DA"/>
</g>
</g>
</svg>
