<svg width="28" height="28" viewBox="0 0 28 28" fill="none" xmlns="http://www.w3.org/2000/svg">
<mask id="mask0_1_459" style="mask-type:alpha" maskUnits="userSpaceOnUse" x="0" y="0" width="28" height="28">
<rect width="28" height="28" fill="white"/>
</mask>
<g mask="url(#mask0_1_459)">
<path d="M2.33594 25.6666V4.66659C2.33594 4.02492 2.56441 3.47561 3.02135 3.01867C3.4783 2.56172 4.0276 2.33325 4.66927 2.33325H23.3359C23.9776 2.33325 24.5269 2.56172 24.9839 3.01867C25.4408 3.47561 25.6693 4.02492 25.6693 4.66659V18.6666C25.6693 19.3083 25.4408 19.8576 24.9839 20.3145C24.5269 20.7714 23.9776 20.9999 23.3359 20.9999H7.0026L2.33594 25.6666ZM6.01094 18.6666H23.3359V4.66659H4.66927V19.9791L6.01094 18.6666Z" fill="white"/>
</g>
</svg>
