<svg width="212" height="50" viewBox="0 0 212 50" fill="none" xmlns="http://www.w3.org/2000/svg">
<path fill-rule="evenodd" clip-rule="evenodd" d="M8.26633 0.798986H28.9101C33.0832 0.798986 36.4961 4.2119 36.4961 8.385V41.6589C36.4961 45.832 33.0832 49.237 28.9101 49.237H8.26633C4.09323 49.237 0.688232 45.8241 0.688232 41.6589V8.385C0.688232 4.2119 4.10115 0.798986 8.26633 0.798986Z" fill="#123C88"/>
<path fill-rule="evenodd" clip-rule="evenodd" d="M14.0568 36.0289C11.3645 32.3705 6.72422 30.8184 2.05225 29.2901C6.39164 36.4802 9.69369 43.0526 11.8 48.7699H15.5218C22.3001 34.358 29.3397 21.1498 36.4902 8.47215V7.90992C36.4902 6.80132 36.2447 5.74023 35.8171 4.79C28.4528 14.6249 21.1598 24.8003 14.0648 36.0289" fill="white"/>
<path d="M72.9054 41.3266C74.8217 41.3266 76.7142 41.6354 78.6305 41.5958C78.6305 42.0868 78.6305 42.5698 78.6305 43.0607C76.7221 43.1716 74.8137 42.9261 72.9133 42.839C72.9133 42.3402 72.9133 41.8334 72.9133 41.3345M63.1655 31.2383C63.9732 31.2541 64.7729 31.2383 65.5727 31.2145C65.2718 36.4091 65.2481 41.6275 65.5648 46.83C67.7108 47.1547 69.9834 46.925 72.161 46.6716C72.161 47.1547 72.1689 47.6377 72.1768 48.1287C69.2074 47.9861 66.23 47.9624 63.2605 48.1128C63.4505 42.4906 63.3793 36.8684 63.1655 31.2541V31.2383ZM51.1609 31.2779C51.929 31.3016 52.6892 31.3016 53.4573 31.2858C53.2514 36.5121 53.2672 41.7463 53.4335 46.9725C55.6428 47.028 57.8838 47.0676 60.0693 46.6558C60.0693 47.1467 60.0772 47.6377 60.0931 48.1287C57.1632 48.097 54.2254 47.9307 51.2955 48.1762C51.3984 42.5381 51.3351 36.9001 51.1688 31.27L51.1609 31.2779ZM85.971 31.8084C88.9643 30.6286 92.4564 30.779 95.3704 32.1252C95.2279 32.8458 95.0932 33.5743 94.9824 34.3028C92.8444 31.0482 87.4835 31.0245 85.2267 34.1444C83.643 36.2666 83.54 39.1015 83.7855 41.6433C84.0072 44.0189 85.3613 46.4103 87.6498 47.321C90.2471 48.2078 93.1215 47.4001 95.2358 45.7451C95.2199 46.2282 95.2041 46.7033 95.1883 47.1863C93.3195 48.4216 90.9914 48.6671 88.798 48.5642C86.4857 48.4375 84.0864 47.4635 82.7402 45.4997C81.1407 43.0687 80.816 39.9171 81.497 37.1218C82.0434 34.7779 83.7697 32.7745 85.9631 31.8163L85.971 31.8084Z" fill="#6E6E6E"/>
<path d="M181.282 37.4145C181.757 37.4145 182.232 37.4145 182.715 37.4145C182.684 40.5344 182.731 43.6623 182.739 46.7822C182.28 46.7822 181.82 46.7822 181.361 46.7901C181.409 43.6623 181.488 40.5265 181.282 37.4066M151.571 37.2799C152.102 37.272 152.64 37.264 153.171 37.2482C153.068 40.3919 153.06 43.5435 153.195 46.6872C152.68 46.6872 152.157 46.6872 151.651 46.6872C151.809 43.5435 151.73 40.4077 151.571 37.272V37.2799ZM141.079 37.3195C141.586 37.3195 142.085 37.3274 142.592 37.3353C142.489 40.479 142.489 43.6306 142.639 46.7822H141.19C141.206 43.6306 141.341 40.4631 141.079 37.3195ZM128.592 37.4303C129.138 37.4303 129.692 37.4462 130.247 37.4541C130.191 38.1588 130.144 38.8636 130.112 39.5604C130.777 38.3806 131.704 37.1769 133.208 37.2007C133.208 37.755 133.224 38.3172 133.232 38.8794C132.297 38.5864 131.046 38.5548 130.595 39.6159C129.756 41.9518 130.08 44.4858 130.199 46.9089C129.7 46.9089 129.201 46.8931 128.702 46.8931C128.679 43.7415 128.797 40.5819 128.6 37.4382L128.592 37.4303ZM200.54 37.1928C201.807 36.9394 203.399 36.9631 204.206 38.1509C204.792 39.212 204.776 40.4711 204.776 41.6509C204.761 43.3218 204.776 44.9926 204.776 46.6634C204.333 46.6634 203.882 46.6634 203.438 46.6634C203.462 44.66 203.501 42.6566 203.478 40.6453C203.517 39.4179 202.797 37.9688 201.451 37.8579C199.986 37.5966 198.616 38.8557 198.56 40.2889C198.41 42.4111 198.505 44.5491 198.584 46.6713C198.109 46.6713 197.65 46.6713 197.182 46.6713C197.182 43.5435 197.285 40.4077 197.064 37.2799C197.523 37.2799 197.982 37.2799 198.441 37.264C198.41 37.8738 198.37 38.4914 198.331 39.1011C198.996 38.3964 199.606 37.5254 200.54 37.169V37.1928ZM188.686 37.8263C186.674 38.9507 186.73 41.6668 187.062 43.6543C187.165 45.341 188.773 46.8614 190.507 46.4892C192.051 46.3071 192.978 44.7709 193.073 43.3297C193.223 41.548 193.168 39.4496 191.806 38.1113C190.919 37.4778 189.676 37.3828 188.686 37.8263ZM188.71 37.2482C190.737 36.6939 193.128 37.5333 194.078 39.4654C195.052 41.643 194.815 44.7154 192.701 46.1645C191.576 47.0989 190.024 46.9326 188.67 46.798C187.26 46.3229 185.97 45.246 185.598 43.7652C184.734 41.2233 185.954 37.945 188.717 37.2561L188.71 37.2482ZM167.06 42.8308C165.928 43.6623 166.221 45.7607 167.559 46.2279C168.62 46.5763 169.776 46.0537 170.465 45.2381C170.798 44.1295 170.552 42.9258 170.6 41.7855C169.38 41.9598 168.105 42.126 167.068 42.8387L167.06 42.8308ZM165.69 39.1645C165.698 37.8579 167.068 37.3828 168.145 37.1928C169.396 36.9869 171.004 37.2324 171.605 38.5073C172.524 40.764 171.661 43.2505 172.033 45.5865C172.057 46.2675 172.944 46.212 173.371 46.505C172.69 46.6713 172.001 46.901 171.289 46.8614C170.972 46.5446 170.734 46.1566 170.473 45.7924C169.301 46.8772 167.535 47.3998 166.039 46.703C164.384 45.729 164.59 42.9021 166.395 42.2132C167.82 41.8093 169.309 41.6509 170.687 41.0808C170.608 40.0355 170.711 38.6894 169.689 38.0559C168.264 37.4145 166.68 38.048 165.698 39.1645H165.69ZM157.13 38.2618C158.928 36.6305 161.699 36.7968 163.726 37.8975C163.56 38.3885 163.41 38.8953 163.259 39.3862C162.436 37.1453 159.046 36.979 157.882 38.9665C157.083 40.3285 157.035 42.0548 157.384 43.5752C157.684 45.1826 159.244 46.5209 160.915 46.3546C162.024 46.4258 162.911 45.6815 163.806 45.1509C163.726 46.4258 162.364 46.8455 161.287 46.8693C160.147 46.9089 158.912 46.9564 157.914 46.2992C155.158 44.7154 154.865 40.384 157.122 38.2539L157.13 38.2618ZM120.657 38.2776C119.699 39.022 119.43 40.2731 119.311 41.4134C121.164 41.4292 123.017 41.3659 124.862 41.3896C124.711 40.4631 124.711 39.4496 124.11 38.6735C123.349 37.5808 121.687 37.5729 120.657 38.2776ZM118.274 39.5208C119.517 36.9077 123.627 36.3059 125.48 38.5706C126.2 39.5683 126.287 40.8512 126.311 42.0469C123.999 41.9756 121.687 42.1023 119.366 42.0469C119.351 43.5118 119.636 45.1589 120.966 46.0062C122.55 46.8851 124.529 46.3625 125.828 45.2064C125.836 45.4756 125.844 45.7528 125.86 46.022C124.252 47.1148 122.106 47.4869 120.285 46.7347C117.672 45.5231 116.991 41.9281 118.266 39.5208H118.274ZM135.164 35.2131C135.663 34.9835 136.154 34.7618 136.653 34.5321C136.589 35.4982 136.574 36.4722 136.55 37.4382C137.5 37.367 138.45 37.3036 139.408 37.264C139.052 38.4993 137.484 37.8025 136.534 38.0717C136.534 40.0355 136.455 41.9914 136.463 43.9552C136.486 44.7629 136.534 45.7765 137.318 46.2437C138.157 46.5605 139.044 46.1962 139.907 46.1883C138.902 46.996 137.508 47.1544 136.288 46.8535C135.172 46.41 135.077 44.9767 135.109 43.9473C135.148 42.0152 135.124 40.0831 135.148 38.1588C134.578 38.0955 133.921 38.1113 133.755 37.4145C134.111 37.4145 134.824 37.4224 135.18 37.4303C135.196 36.686 135.18 35.9496 135.18 35.2131H135.164ZM175.39 35.0152C175.826 34.8489 176.262 34.6826 176.705 34.5242C176.673 35.4982 176.673 36.4722 176.673 37.4462C177.536 37.4066 178.4 37.3749 179.263 37.3036C179.263 37.462 179.278 37.7788 179.286 37.9371C178.407 37.953 177.528 37.9767 176.657 37.9925C176.673 40.091 176.515 42.1894 176.57 44.2878C176.586 45.0243 176.8 45.8399 177.449 46.2754C178.257 46.6238 179.136 46.2596 179.967 46.2121C179.017 47.0673 177.624 47.1464 176.444 46.8376C175.541 46.5288 175.272 45.4915 175.288 44.6362C175.264 42.4111 175.398 40.186 175.343 37.9609C174.923 37.9609 174.504 37.9609 174.084 37.9609L174.036 37.3432C174.464 37.3432 174.9 37.3274 175.343 37.3115C175.359 36.5514 175.367 35.7912 175.39 35.0231V35.0152ZM108.447 33.6057C110.886 32.5604 113.72 32.7425 116.144 33.7403C116.08 34.3342 116.017 34.936 115.961 35.5299C114.18 32.8692 109.809 32.8613 107.924 35.3952C106.507 37.1453 106.515 39.5604 106.736 41.6905C106.903 43.9394 108.565 46.1487 110.878 46.4971C112.77 46.9643 114.607 46.0062 116.151 45.0084C116.096 45.4202 116.049 45.832 115.993 46.2516C114.362 47.2652 112.398 47.2731 110.545 47.2019C109.167 47.2019 107.869 46.5684 106.792 45.7528C104.677 43.6939 104.353 40.4711 104.97 37.7154C105.509 35.9495 106.744 34.3658 108.447 33.6057ZM99.7521 42.6724C99.4908 39.2041 100.267 35.1894 103.11 32.9167C102.547 34.3896 101.573 35.6962 101.288 37.2799C100.647 40.2256 100.671 43.3851 101.589 46.2675C101.922 47.4869 102.793 48.4688 103.125 49.6883C101.019 48.0096 100.061 45.2697 99.76 42.6724H99.7521ZM207.184 32.505C209.076 34.1916 210.209 36.6701 210.407 39.1883C210.787 42.7833 209.963 46.8059 207.223 49.3557C207.952 47.4632 209.084 45.6973 209.29 43.6227C209.488 40.8353 209.583 37.9134 208.459 35.2844C208.094 34.3262 207.374 33.5265 207.184 32.505ZM181.163 33.2256C181.448 32.6554 182.169 32.885 182.676 32.7663C182.747 33.281 183.111 33.962 182.596 34.3738C181.955 35.1419 180.648 34.0333 181.163 33.2335V33.2256ZM151.421 33.4473C151.397 32.9405 152.007 32.7979 152.308 32.5208C152.561 32.6554 153.06 32.9405 153.306 33.0751C153.337 33.8194 153.052 34.4371 152.332 34.7301C151.936 34.3738 151.215 34.1045 151.421 33.4473ZM141.285 32.8692C141.903 32.2991 142.893 32.9563 142.79 33.7323C142.845 34.3025 142.132 34.8251 141.61 34.6509C140.802 34.5717 140.596 33.2493 141.285 32.8692ZM147.596 32.6C148.238 31.7765 149.322 31.626 150.265 31.3884C150.209 31.8952 150.154 32.3941 150.098 32.893C149.235 32.9167 147.984 32.5445 147.533 33.5581C147.026 34.7618 147.422 36.1317 147.398 37.3987C148.087 37.3987 148.776 37.4066 149.465 37.4066C149.465 37.5412 149.465 37.8263 149.465 37.9688C148.824 37.9688 148.174 37.9529 147.533 38.0242C147.39 40.9224 147.572 43.8365 147.66 46.7347H145.997C146.06 43.8206 146.084 40.9066 146.02 37.9846C145.704 37.9846 145.062 37.9925 144.753 38.0005C144.753 37.8658 144.753 37.6045 144.753 37.4778C145.181 37.4462 145.593 37.3828 146.012 37.2878C146.266 35.6566 146.408 33.8511 147.604 32.5921L147.596 32.6Z" fill="#6E6E6E"/>
<path d="M53.9173 21.3873H50.9954V4.49691H53.9173V21.3873Z" fill="#123C88"/>
<path d="M66.8197 17.0401C66.8197 16.2958 66.5584 15.7256 66.0357 15.3218C65.5131 14.9179 64.5708 14.5141 63.2088 14.1023C61.8468 13.6906 60.7619 13.2392 59.9622 12.7324C58.426 11.7664 57.6499 10.5073 57.6499 8.94734C57.6499 7.58534 58.2042 6.46881 59.3128 5.58193C60.4214 4.69505 61.8626 4.25953 63.6364 4.25953C64.8083 4.25953 65.8615 4.47333 66.7801 4.90885C67.6986 5.34437 68.4271 5.96202 68.9498 6.7618C69.4724 7.56158 69.7416 8.44846 69.7416 9.42245H66.8197C66.8197 8.5514 66.5425 7.86249 65.9882 7.37153C65.4339 6.88058 64.6421 6.62718 63.6126 6.62718C62.6545 6.62718 61.9101 6.83307 61.3796 7.23692C60.849 7.64077 60.5877 8.21883 60.5877 8.94734C60.5877 9.56499 60.8728 10.0797 61.4429 10.4915C62.0131 10.9032 62.9554 11.3071 64.2699 11.6951C65.5844 12.0831 66.6375 12.5265 67.4373 13.0254C68.2371 13.5243 68.8152 14.0944 69.1873 14.7437C69.5595 15.3931 69.7416 16.1453 69.7416 17.0085C69.7416 18.418 69.2032 19.5345 68.1262 20.3659C67.0493 21.1974 65.5844 21.6092 63.7393 21.6092C62.5199 21.6092 61.3954 21.3795 60.366 20.9282C59.3445 20.4768 58.5447 19.8512 57.9746 19.0515C57.4045 18.2517 57.1194 17.3252 57.1194 16.2641H60.0572C60.0572 17.2223 60.3739 17.9666 61.0074 18.4892C61.6409 19.0119 62.5515 19.2811 63.7314 19.2811C64.7529 19.2811 65.521 19.0752 66.0357 18.6634C66.5504 18.2517 66.8038 17.7053 66.8038 17.0243L66.8197 17.0401Z" fill="#123C88"/>
<path d="M86.2822 13.3817C86.2822 15.0367 85.9971 16.4858 85.427 17.737C84.8568 18.9881 84.0333 19.9463 82.9722 20.6114C81.9111 21.2845 80.6837 21.6171 79.298 21.6171C77.9122 21.6171 76.7086 21.2845 75.6396 20.6114C74.5706 19.9463 73.7391 18.9881 73.1611 17.7528C72.583 16.5175 72.2821 15.0922 72.2742 13.4688V12.5186C72.2742 10.8716 72.5672 9.41453 73.1531 8.15548C73.7391 6.89642 74.5627 5.93035 75.6237 5.26518C76.6848 4.60002 77.9043 4.25953 79.2821 4.25953C80.66 4.25953 81.8794 4.59211 82.9405 5.24935C84.0016 5.91451 84.8251 6.86474 85.4032 8.10004C85.9813 9.34326 86.2742 10.7844 86.2822 12.4315V13.3738V13.3817ZM83.3523 12.5028C83.3523 10.634 82.996 9.20073 82.2912 8.20299C81.5864 7.20524 80.5808 6.70637 79.2821 6.70637C77.9835 6.70637 77.0253 7.20524 76.3047 8.19506C75.5842 9.18489 75.2278 10.5944 75.212 12.4078V13.3817C75.212 15.2347 75.5762 16.6759 76.2968 17.6815C77.0174 18.6872 78.0231 19.2019 79.3059 19.2019C80.5887 19.2019 81.6023 18.711 82.307 17.7132C83.0118 16.7155 83.3602 15.2743 83.3602 13.3738V12.4949L83.3523 12.5028Z" fill="#123C88"/>
<path d="M103.612 14.3238C102.67 15.3216 101.569 15.8204 100.31 15.8204C98.8217 15.8204 97.6418 15.2978 96.7628 14.2605C95.8839 13.2231 95.4404 11.8532 95.4404 10.1587C95.4404 9.04213 95.6622 8.03647 96.1135 7.13375C96.5649 6.23103 97.1984 5.52627 98.0298 5.01948C98.8613 4.51269 99.8194 4.26722 100.904 4.26722C102.607 4.26722 103.953 4.9007 104.951 6.16768C105.948 7.43465 106.447 9.13716 106.447 11.2593V12.0512C106.447 15.0999 105.758 17.42 104.381 19.0196C103.003 20.6191 100.952 21.4347 98.2199 21.4585H97.8873V19.1304H98.2911C99.954 19.1067 101.229 18.7107 102.116 17.9268C103.003 17.1508 103.502 15.9471 103.612 14.3238ZM100.904 13.6191C101.466 13.6191 101.997 13.4528 102.496 13.1281C102.995 12.8035 103.375 12.3521 103.644 11.782V10.6813C103.644 9.43805 103.391 8.4324 102.876 7.68013C102.361 6.92787 101.704 6.53985 100.896 6.53985C100.089 6.53985 99.4393 6.87244 98.9563 7.54552C98.4733 8.2186 98.2278 9.05797 98.2278 10.0795C98.2278 11.101 98.4733 11.9958 98.9563 12.6451C99.4393 13.2944 100.097 13.6191 100.904 13.6191Z" fill="#123C88"/>
<path d="M120.603 14.2763C120.603 16.7073 120.151 18.5365 119.241 19.7718C118.33 21.0071 116.952 21.6248 115.091 21.6248C113.23 21.6248 111.892 21.023 110.966 19.8193C110.039 18.6157 109.564 16.834 109.548 14.4743V11.5523C109.548 9.12132 110 7.30004 110.91 6.0885C111.821 4.87695 113.207 4.26722 115.068 4.26722C116.928 4.26722 118.29 4.86111 119.201 6.04098C120.112 7.22085 120.579 8.99462 120.603 11.3544V14.2763ZM117.784 11.1247C117.784 9.54101 117.57 8.37697 117.134 7.64054C116.699 6.90411 116.01 6.53194 115.068 6.53194C114.125 6.53194 113.468 6.88036 113.04 7.58511C112.605 8.28195 112.383 9.37471 112.359 10.8634V14.6881C112.359 16.2639 112.581 17.4438 113.017 18.2119C113.452 18.98 114.149 19.368 115.091 19.368C116.034 19.368 116.667 19.0116 117.095 18.291C117.53 17.5784 117.752 16.4539 117.776 14.9336V11.1168L117.784 11.1247Z" fill="#123C88"/>
<path d="M134.593 14.2763C134.593 16.7073 134.142 18.5365 133.231 19.7718C132.321 21.0071 130.943 21.6248 129.082 21.6248C127.221 21.6248 125.883 21.023 124.956 19.8193C124.03 18.6157 123.555 16.834 123.539 14.4743V11.5523C123.539 9.12132 123.99 7.30004 124.901 6.0885C125.812 4.87695 127.197 4.26722 129.058 4.26722C130.919 4.26722 132.281 4.86111 133.192 6.04098C134.102 7.22085 134.57 8.99462 134.593 11.3544V14.2763ZM131.774 11.1247C131.774 9.54101 131.561 8.37697 131.125 7.64054C130.69 6.90411 130.001 6.53194 129.058 6.53194C128.116 6.53194 127.459 6.88036 127.031 7.58511C126.596 8.28195 126.374 9.37471 126.35 10.8634V14.6881C126.35 16.2639 126.572 17.4438 127.007 18.2119C127.443 18.98 128.14 19.368 129.082 19.368C130.024 19.368 130.658 19.0116 131.085 18.291C131.521 17.5784 131.743 16.4539 131.766 14.9336V11.1168L131.774 11.1247Z" fill="#123C88"/>
<path d="M145.191 21.3874H142.388V7.82288L138.246 9.2324V6.86473L144.834 4.44164H145.191V21.3874Z" fill="#123C88"/>
<path d="M153.415 8.5672C153.937 8.5672 154.349 8.71765 154.634 9.01064C154.919 9.31154 155.062 9.68372 155.062 10.1272C155.062 10.5706 154.919 10.9349 154.634 11.2199C154.349 11.5129 153.945 11.6555 153.415 11.6555C152.884 11.6555 152.512 11.5129 152.219 11.2278C151.926 10.9428 151.775 10.5706 151.775 10.1272C151.775 9.68372 151.918 9.30362 152.203 9.01064C152.488 8.70973 152.892 8.5672 153.407 8.5672H153.415ZM153.415 18.4179C153.937 18.4179 154.349 18.5684 154.634 18.8614C154.919 19.1544 155.062 19.5345 155.062 19.9779C155.062 20.4213 154.919 20.7856 154.634 21.0707C154.349 21.3636 153.945 21.5062 153.415 21.5062C152.884 21.5062 152.512 21.3636 152.219 21.0786C151.926 20.7935 151.775 20.4213 151.775 19.9779C151.775 19.5345 151.918 19.1544 152.203 18.8614C152.488 18.5684 152.892 18.4179 153.407 18.4179H153.415Z" fill="#123C88"/>
<path d="M169.656 21.3872H158.301V19.4472L163.923 13.3103C164.738 12.4075 165.316 11.6473 165.657 11.0455C165.997 10.4437 166.172 9.82607 166.172 9.21634C166.172 8.40864 165.942 7.75931 165.491 7.26836C165.039 6.77741 164.43 6.52401 163.661 6.52401C162.751 6.52401 162.038 6.80117 161.539 7.35547C161.04 7.90977 160.787 8.67787 160.787 9.64394H157.968C157.968 8.61452 158.206 7.68805 158.673 6.86452C159.14 6.04098 159.813 5.39958 160.676 4.94822C161.539 4.49686 162.553 4.26722 163.685 4.26722C165.324 4.26722 166.615 4.67899 167.565 5.50252C168.516 6.32605 168.983 7.46633 168.983 8.91543C168.983 9.7548 168.745 10.6417 168.27 11.5682C167.795 12.4946 167.019 13.5399 165.934 14.7198L161.809 19.1383H169.648V21.3872H169.656Z" fill="#123C88"/>
<path d="M183.289 14.2763C183.289 16.7073 182.837 18.5365 181.927 19.7718C181.016 21.0071 179.638 21.6248 177.777 21.6248C175.917 21.6248 174.578 21.023 173.652 19.8193C172.725 18.6157 172.25 16.834 172.234 14.4743V11.5523C172.234 9.12132 172.686 7.30004 173.596 6.0885C174.507 4.87695 175.893 4.26722 177.754 4.26722C179.615 4.26722 180.977 4.86111 181.887 6.04098C182.798 7.22085 183.265 8.99462 183.289 11.3544V14.2763ZM180.47 11.1247C180.47 9.54101 180.256 8.37697 179.82 7.64054C179.385 6.90411 178.696 6.53194 177.754 6.53194C176.811 6.53194 176.154 6.88036 175.726 7.58511C175.291 8.28195 175.069 9.37471 175.045 10.8634V14.6881C175.045 16.2639 175.267 17.4438 175.703 18.2119C176.138 18.98 176.835 19.368 177.777 19.368C178.72 19.368 179.353 19.0116 179.781 18.291C180.216 17.5784 180.438 16.4539 180.462 14.9336V11.1168L180.47 11.1247Z" fill="#123C88"/>
<path d="M193.893 21.3874H191.09V7.82288L186.948 9.2324V6.86473L193.537 4.44164H193.893V21.3874Z" fill="#123C88"/>
<path d="M200.987 13.0094L201.906 4.49691H210.981V6.93584H204.25L203.783 10.9743C204.567 10.523 205.446 10.3012 206.427 10.3012C208.035 10.3012 209.286 10.8159 210.181 11.8454C211.076 12.8748 211.519 14.2605 211.519 15.9947C211.519 17.7289 211.028 19.075 210.03 20.0965C209.033 21.118 207.686 21.6248 205.96 21.6248C204.416 21.6248 203.133 21.1893 202.112 20.3103C201.09 19.4314 200.544 18.2753 200.457 16.8341H203.181C203.292 17.6576 203.585 18.2832 204.06 18.7187C204.543 19.1542 205.168 19.376 205.936 19.376C206.8 19.376 207.481 19.0671 207.964 18.4495C208.447 17.8318 208.692 16.9845 208.692 15.9234C208.692 14.8624 208.423 14.0784 207.892 13.4845C207.362 12.8827 206.625 12.5897 205.691 12.5897C205.184 12.5897 204.749 12.661 204.392 12.7956C204.036 12.9302 203.648 13.1995 203.236 13.5875L200.987 13.0332V13.0094Z" fill="#123C88"/>
<path d="M50.8164 26.7324H210.495" stroke="#6E6E6E" stroke-width="0.791859" stroke-miterlimit="10"/>
</svg>
