<svg width="138" height="57" viewBox="0 0 138 57" fill="none" xmlns="http://www.w3.org/2000/svg">
<path d="M104.678 0.535328C104.454 0.962783 104.3 1.29346 104.117 1.60397C96.8328 13.9961 89.5686 26.3964 82.2476 38.7684C79.4337 43.5228 76.027 47.8014 71.4589 51.0597C67.0005 54.2414 62.0346 55.9432 56.5367 55.9835C49.8004 56.0319 43.064 55.9916 36.3277 56.0117C35.6699 56.0117 35.5075 55.7899 35.5075 55.177C35.5197 44.7164 35.5237 34.2519 35.5075 23.7913C35.5075 23.1017 35.7471 22.9243 36.4008 22.9404C37.9682 22.9767 39.5396 22.9929 41.1069 22.9364C41.8906 22.9082 42.053 23.2146 42.053 23.9203C42.0327 31.9936 42.0408 40.0709 42.0408 48.1441C42.0408 48.9023 42.4211 49.2813 43.1818 49.2813C47.7255 49.2813 52.2732 49.2894 56.8169 49.2813C66.2981 49.2612 75.2636 42.3412 77.3426 33.1752C78.9302 26.1786 77.8867 19.5974 72.7745 14.1897C68.3973 9.55624 62.9482 6.98345 56.4311 6.97942C40.1974 6.96732 23.9636 6.97942 7.72982 6.97942C6.92855 6.97942 6.52792 7.36654 6.52792 8.1408C6.52792 23.6986 6.52792 39.2563 6.52792 54.8181C6.52792 55.6112 6.13134 56.0077 5.3382 56.0077C3.87643 56.0077 2.41466 55.9875 0.956948 56.0198C0.388482 56.0319 0.181398 55.8383 0.209821 55.2818C0.242305 54.6407 0.217942 53.9954 0.217942 53.3502C0.217942 36.127 0.217942 18.9078 0.217942 1.68462C0.217942 0.89692 0.610455 0.50307 1.39548 0.50307C19.4971 0.50307 37.5987 0.50307 55.6962 0.50307C61.0844 0.50307 66.2493 1.49105 70.9635 4.20096C77.1558 7.76174 81.0538 13.1372 83.2952 19.7829C83.5226 20.4604 83.7094 21.15 83.9652 21.9968C84.1966 21.7186 84.355 21.5613 84.4727 21.3758C88.6428 14.7583 92.817 8.14887 96.9546 1.51122C97.4216 0.765189 97.9048 0.42645 98.8224 0.470808C100.467 0.555493 102.124 0.49097 103.772 0.495003C104.032 0.495003 104.292 0.519199 104.686 0.539362L104.678 0.535328Z" fill="#102C91"/>
<path d="M33.9124 9.35864C41.3268 9.35864 48.7412 9.35864 56.1557 9.35864C61.9378 9.35864 66.9565 11.2378 70.8668 15.5245C79.7511 25.2672 76.3281 42.3614 61.3287 46.265C60.0618 46.5956 58.7057 46.6722 57.3901 46.6884C53.4392 46.7408 49.4884 46.6884 45.5375 46.7247C44.7336 46.7327 44.5468 46.4666 44.5468 45.7085C44.5711 38.4659 44.5752 31.2234 44.5468 23.9768C44.5468 23.1743 44.7498 22.8961 45.5863 22.9283C47.2064 22.9928 48.8346 22.9727 50.4548 22.9364C51.1369 22.9203 51.3359 23.1622 51.3318 23.8195C51.3115 28.9167 51.3196 34.0139 51.3196 39.1111C51.3196 40.2362 51.3196 40.2443 52.4891 40.2362C54.4625 40.2241 56.4562 40.3653 58.4092 40.1515C63.1884 39.6233 67.6184 35.5221 68.6903 30.8483C70.2293 24.1341 65.9658 17.6376 59.0305 16.1778C58.06 15.9721 57.049 15.8874 56.0542 15.8874C42.7967 15.8673 29.5352 15.8834 16.2778 15.8552C15.4535 15.8552 15.2017 16.0729 15.2302 16.8915C15.2911 18.5812 15.283 20.2708 15.2302 21.9605C15.2058 22.7267 15.4372 22.9727 16.229 22.9646C21.4792 22.9324 26.7294 22.9485 31.9756 22.9485C32.7281 22.9485 33.1044 23.3087 33.1044 24.0292C33.1044 25.6382 33.0841 27.2472 33.1165 28.8562C33.1287 29.4329 32.9582 29.6628 32.341 29.6587C24.7114 29.6426 17.0817 29.6426 9.44805 29.6587C8.86741 29.6587 8.70905 29.441 8.70905 28.9006C8.72123 22.6218 8.72935 16.3471 8.70093 10.0684C8.70093 9.30622 9.12322 9.35058 9.63483 9.35058C17.7274 9.35058 25.8158 9.35058 33.9083 9.35058L33.9124 9.35864Z" fill="#102C91"/>
<path d="M129.344 46.6561C128.82 46.6803 128.532 46.7045 128.24 46.7045C117.634 46.7045 107.024 46.7005 96.4176 46.7206C95.6542 46.7206 95.3659 46.5351 95.3984 45.7367C95.4593 44.289 95.4147 42.8413 95.4147 41.3895C95.4147 40.6233 95.7909 40.2389 96.5435 40.2362C103.065 40.2362 109.586 40.2362 116.107 40.2362C116.448 40.2362 116.785 40.2362 117.394 40.2362C113.135 33.3526 109.005 26.6786 104.79 19.8716C104.506 20.3273 104.287 20.6499 104.092 20.9886C97.5383 32.3767 90.9847 43.7647 84.4514 55.1608C84.1022 55.7738 83.7246 56.0279 82.9937 56.0158C80.6386 55.9674 78.2876 55.9956 75.9325 55.9956H74.8037C84.829 39.587 94.7325 23.3759 104.754 6.97133C112.976 20.2426 121.097 33.3526 129.336 46.6561H129.344Z" fill="#102C91"/>
<path d="M134.001 49.2894C124.297 33.0945 114.592 16.8996 104.81 0.575619C105.204 0.535293 105.432 0.494965 105.655 0.494965C107.494 0.490933 109.334 0.511096 111.173 0.482868C111.729 0.474803 112.05 0.664336 112.342 1.13615C119.627 12.875 126.928 24.6018 134.228 36.3286C135.394 38.1997 136.575 40.0588 137.704 41.95C137.875 42.2364 137.96 42.7606 137.81 43.0146C136.567 45.1197 135.26 47.1884 133.973 49.2652L133.997 49.2853L134.001 49.2894Z" fill="#102C91"/>
<path d="M20.9147 32.4492C24.6463 32.4492 28.3779 32.4654 32.1135 32.4331C32.8809 32.425 33.1611 32.6388 33.1286 33.4292C33.0677 34.8728 33.1124 36.3246 33.1124 37.7723C33.1124 38.5411 32.7348 38.9256 31.9795 38.9256C26.7862 38.9256 21.5928 38.9256 16.3995 38.9256C15.6334 38.9256 15.249 39.3087 15.2463 40.0749C15.2463 45.035 15.2301 49.9951 15.2625 54.9592C15.2666 55.7496 15.0717 56.052 14.2271 56.0157C12.7694 55.9472 11.3076 55.9996 9.84587 55.9956C9.09875 55.9956 8.72383 55.634 8.72112 54.9108C8.72112 49.2813 8.72112 43.6478 8.72112 38.0182C8.72112 36.4617 8.75361 34.9051 8.70894 33.3525C8.68864 32.6428 8.92821 32.4291 9.63473 32.4331C13.3947 32.4613 17.1547 32.4452 20.9147 32.4452V32.4492Z" fill="#102C91"/>
<path d="M133.981 49.2692C132.722 51.3621 131.483 53.4671 130.172 55.5238C129.997 55.798 129.461 55.9754 129.092 55.9794C125.145 56.0117 121.198 55.9996 117.251 55.9996C110.304 55.9996 103.356 55.9875 96.409 56.0157C95.6334 56.0157 95.3776 55.8101 95.402 55.0278C95.4588 53.3663 95.4426 51.7049 95.406 50.0435C95.3938 49.4345 95.609 49.2692 96.2059 49.2692C108.806 49.2853 121.401 49.2813 134.001 49.2853L133.976 49.2652L133.981 49.2692Z" fill="#102C91"/>
</svg>
