<svg width="87" height="61" viewBox="0 0 87 61" fill="none" xmlns="http://www.w3.org/2000/svg">
<path d="M71.0597 60.3343H13.1915C12.9994 60.2515 12.8157 60.133 12.6139 60.091C5.34006 58.5792 0.913979 53.4793 0.90399 46.5261C0.888145 35.4966 0.874132 24.467 0.909756 13.4376C0.933221 6.17275 7.14127 0.220143 14.8823 0.195664C34.0757 0.134969 53.2696 0.140434 72.463 0.203069C76.9389 0.217676 80.5937 2.06688 83.404 5.36847C85.0573 7.31078 85.7888 9.60413 86.4083 11.9516V48.552C86.3171 48.8684 86.2098 49.1815 86.1373 49.5016C85.3033 53.1829 83.3145 56.1993 79.8467 58.0987C78.7889 58.6781 77.6268 59.0899 76.4475 59.4741C74.7143 60.0389 72.8943 60.3343 71.0597 60.3343ZM43.5575 54.4416C46.3621 54.4416 49.1666 54.4416 51.9712 54.4416C58.4706 54.4414 64.9701 54.4629 71.4694 54.4342C76.8433 54.4106 80.1479 51.3967 80.1618 46.4634C80.1922 35.6885 80.1736 24.9136 80.1692 14.1386C80.1682 11.8816 79.4716 9.8728 77.7556 8.21948C75.9352 6.46554 73.6546 6.05082 71.1649 6.05311C52.8241 6.06999 34.4832 6.0618 16.1423 6.06458C15.6535 6.06465 15.1634 6.08462 14.676 6.12042C10.2699 6.44413 7.16024 9.47595 7.14774 13.6038C7.11446 24.5874 7.08847 35.5716 7.19161 46.5545C7.20544 48.0273 7.7009 49.6388 8.46211 50.933C10.0305 53.5996 12.7417 54.4708 15.9128 54.4562C25.1275 54.4138 34.3426 54.4411 43.5575 54.4416Z" fill="black"/>
<path d="M77.0231 22.2871H70.7769C70.7769 20.6955 70.7838 19.1645 70.7753 17.6337C70.7627 15.3684 70.198 14.839 67.7598 14.838C57.9201 14.8337 48.0804 14.8331 38.2407 14.8386C35.9087 14.8399 35.3228 15.3971 35.3175 17.5752C35.3118 19.956 35.3093 22.3369 35.3184 24.7178C35.3262 26.7584 35.8939 27.2792 38.1131 27.2828C41.8085 27.2889 45.504 27.2772 49.1994 27.2864C54.6989 27.3001 58.2537 30.5721 58.2864 35.7046C58.305 38.6261 58.414 41.5635 58.1459 44.4664C57.7616 48.6278 54.4053 51.5006 49.9254 51.5326C39.5075 51.6071 29.0882 51.6079 18.6703 51.5342C13.85 51.5 10.3973 48.1468 10.2785 43.6356C10.2324 41.8845 10.271 40.1315 10.271 38.2634H16.5342C16.5342 39.8493 16.5243 41.4222 16.5366 42.995C16.5533 45.1196 17.1242 45.6623 19.4061 45.664C29.3348 45.6713 39.2636 45.6716 49.1923 45.6634C51.3806 45.6616 51.9859 45.0889 51.9934 43.0727C52.0026 40.6084 52.0089 38.1438 51.9907 35.6795C51.977 33.8203 51.3274 33.2265 49.326 33.2216C45.6305 33.2127 41.935 33.226 38.2396 33.2172C32.5106 33.2034 29.0131 29.9235 29.0229 24.5343C29.0282 21.6132 28.9322 18.6778 29.2013 15.7749C29.5552 11.9561 33.0407 8.99581 37.1252 8.97254C47.7213 8.91218 58.3184 8.90889 68.9145 8.97206C73.3072 8.99825 76.7389 12.2519 77.0035 16.494C77.1201 18.3648 77.0231 20.2473 77.0231 22.2871Z" fill="black"/>
<path d="M19.7278 8.97671H25.8208V42.6783H19.7278V8.97671Z" fill="black"/>
<path d="M61.4863 17.8259H67.5827V51.4827H61.4863V17.8259Z" fill="black"/>
</svg>
